<svg width="60" height="60" viewBox="0 0 60 60" fill="none" xmlns="http://www.w3.org/2000/svg">
<rect width="60" height="60" rx="16" fill="#141414"/>
<path d="M17.13 15.038C17.13 15.1138 17.0686 15.1753 16.9927 15.1753H16.515C16.4392 15.1753 16.3777 15.1138 16.3777 15.038V14.5465C16.3777 14.4706 16.4392 14.4092 16.515 14.4092H16.9927C17.0686 14.4092 17.13 14.4706 17.13 14.5465V15.038Z" fill="white"/>
<path d="M20.4486 15.038C20.4486 15.1138 20.3872 15.1753 20.3114 15.1753H19.8336C19.7578 15.1753 19.6963 15.1138 19.6963 15.038V14.5465C19.6963 14.4706 19.7578 14.4092 19.8336 14.4092H20.3114C20.3872 14.4092 20.4486 14.4706 20.4486 14.5465V15.038Z" fill="white"/>
<path d="M23.7675 15.038C23.7675 15.1138 23.706 15.1753 23.6302 15.1753H23.1524C23.0766 15.1753 23.0151 15.1138 23.0151 15.038V14.5465C23.0151 14.4706 23.0766 14.4092 23.1524 14.4092H23.6302C23.706 14.4092 23.7675 14.4706 23.7675 14.5465V15.038Z" fill="white"/>
<path d="M27.0863 15.038C27.0863 15.1138 27.0249 15.1753 26.949 15.1753H26.4713C26.3955 15.1753 26.334 15.1138 26.334 15.038V14.5465C26.334 14.4706 26.3955 14.4092 26.4713 14.4092H26.949C27.0249 14.4092 27.0863 14.4706 27.0863 14.5465V15.038Z" fill="white"/>
<path d="M17.13 28.7645C17.13 28.8404 17.0686 28.9018 16.9927 28.9018H16.515C16.4392 28.9018 16.3777 28.8404 16.3777 28.7645V28.273C16.3777 28.1972 16.4392 28.1357 16.515 28.1357H16.9927C17.0686 28.1357 17.13 28.1972 17.13 28.273V28.7645Z" fill="white"/>
<path d="M20.4486 28.7645C20.4486 28.8404 20.3872 28.9018 20.3114 28.9018H19.8336C19.7578 28.9018 19.6963 28.8404 19.6963 28.7645V28.273C19.6963 28.1972 19.7578 28.1357 19.8336 28.1357H20.3114C20.3872 28.1357 20.4486 28.1972 20.4486 28.273V28.7645Z" fill="white"/>
<path d="M23.7675 28.7645C23.7675 28.8404 23.706 28.9018 23.6302 28.9018H23.1524C23.0766 28.9018 23.0151 28.8404 23.0151 28.7645V28.273C23.0151 28.1972 23.0766 28.1357 23.1524 28.1357H23.6302C23.706 28.1357 23.7675 28.1972 23.7675 28.273V28.7645Z" fill="white"/>
<path d="M27.0863 28.7645C27.0863 28.8404 27.0249 28.9018 26.949 28.9018H26.4713C26.3955 28.9018 26.334 28.8404 26.334 28.7645V28.273C26.334 28.1972 26.3955 28.1357 26.4713 28.1357H26.949C27.0249 28.1357 27.0863 28.1972 27.0863 28.273V28.7645Z" fill="white"/>
<path d="M32.0155 19.7459V20.5174H29.7611V28.9004H29.0088V14.5068H32.0155V15.2784H29.7611V19.7459H32.0155Z" fill="white"/>
<path d="M34.1298 28.9004H33.3774V14.5068H34.1298V28.9004Z" fill="white"/>
<path d="M43.6198 28.1492V28.9016H35.5938V14.4092H36.3653V28.1492H43.6225H43.6198ZM43.6198 15.9304V27.0015H42.8674V15.9304C42.8674 15.5157 42.5516 15.178 42.0958 15.178C41.64 15.178 41.3243 15.4746 41.3243 15.9304V27.0015H40.5719V15.9304C40.5719 15.5157 40.215 15.178 39.8003 15.178C39.3857 15.178 39.0288 15.4746 39.0288 15.9304V27.0015H38.2764V14.4092H39.0288V14.7854C39.2457 14.5492 39.5615 14.4092 39.88 14.4092C40.4127 14.4092 40.69 14.6261 40.9481 14.9226C41.2254 14.6261 41.6593 14.4092 42.1151 14.4092C42.9663 14.4092 43.617 15.0023 43.617 15.9304H43.6198Z" fill="white"/>
<path d="M18.6704 32.661V32.6226C18.6704 32.2079 18.3355 31.8702 17.8989 31.8702C17.4623 31.8702 17.1465 32.2052 17.1465 32.6226V35.6869C17.1465 36.1015 17.4623 36.4392 17.8989 36.4392C18.7501 36.4392 19.442 37.0516 19.442 37.9604V44.0699C19.442 44.9211 18.7501 45.5911 17.8989 45.5911C17.0477 45.5911 16.3777 44.9595 16.3777 44.0699V44.0314H17.1493V44.0699C17.1493 44.4845 17.4842 44.8414 17.9016 44.8414C18.319 44.8414 18.6732 44.4845 18.6732 44.0699V37.9604C18.6732 37.5458 18.3382 37.23 17.9208 37.1889C17.012 37.1092 16.3777 36.6562 16.3777 35.6457V32.6198C16.3777 31.8098 17.0504 31.0986 17.8989 31.0986C18.7473 31.0986 19.442 31.7109 19.442 32.6198V32.6583H18.6704V32.661Z" fill="white"/>
<path d="M23.4946 31.9679H22.3688V45.5899H21.5972V31.9679H20.4495V31.1963H23.4946V31.9679Z" fill="white"/>
<path d="M27.7231 37.9785V45.5899H26.9515V37.9785C26.9515 37.5446 26.6165 37.2069 26.1992 37.2069H25.4276V45.5899H24.656V31.1963H26.1992C27.108 31.1963 27.7203 31.8498 27.7203 32.7175V35.683C27.7203 36.1168 27.5611 36.493 27.2069 36.8307C27.5419 37.0888 27.7011 37.5226 27.7203 37.9785H27.7231ZM26.2019 36.4353C26.6165 36.4353 26.9543 36.1003 26.9543 35.683V32.7202C26.9543 32.3056 26.6193 31.9679 26.2019 31.9679H25.4303V36.4353H26.2019Z" fill="white"/>
<path d="M29.9394 45.5899H29.187V31.1963H29.9394V45.5899Z" fill="white"/>
<path d="M31.3997 31.1963H32.9208C33.8489 31.1963 34.442 31.869 34.442 32.7175V35.683C34.442 36.0784 34.2828 36.4545 33.9286 36.8307C34.2443 37.1273 34.4228 37.5034 34.442 37.9785V44.0879C34.442 44.9391 33.8489 45.5899 32.9208 45.5899H31.3997V31.1963ZM32.9208 36.4353C33.3355 36.4353 33.6924 36.1003 33.6924 35.683V32.7202C33.6924 32.3056 33.3766 31.9679 32.9208 31.9679H32.1493V36.4353H32.9208ZM32.9208 44.8375C33.3766 44.8375 33.6924 44.5025 33.6924 44.0851V37.9757C33.6924 37.5419 33.3355 37.2041 32.9208 37.2041H32.1493V44.8348H32.9208V44.8375Z" fill="white"/>
<path d="M38.9125 36.4353V37.2069H36.6198V44.8183H38.9125V45.5899H35.8674V31.1963H38.9125V31.9679H36.6198V36.4353H38.9125Z" fill="white"/>
<path d="M43.2812 32.6198V45.5911H42.5096V32.6198C42.5096 32.2052 42.1746 31.8675 41.7573 31.8675C41.3015 31.8675 40.9857 32.2025 40.9857 32.6198V45.5911H40.2141V31.0986H40.9857V31.4748C41.1642 31.2579 41.5403 31.0986 41.8369 31.0986C42.7458 31.0986 43.2812 31.7906 43.2812 32.6198Z" fill="white"/>
</svg>
