<svg width="64" height="24" viewBox="0 0 64 24" fill="none" xmlns="http://www.w3.org/2000/svg">
<rect width="64" height="24" rx="12" fill="#3478F6"/>
<path d="M22.1943 17H20.5605V12.4883H15.9531V17H14.3125V7.00586H15.9531V11.0938H20.5605V7.00586H22.1943V17ZM30.5 17H24.8398V7.00586H30.5V8.38672H26.4805V11.1006H30.2471V12.4746H26.4805V15.6123H30.5V17ZM41 17H38.9834L34.0889 9.02246H34.0273C34.0456 9.29134 34.0615 9.57617 34.0752 9.87695C34.0934 10.1777 34.1071 10.4876 34.1162 10.8066C34.1299 11.1257 34.1413 11.4492 34.1504 11.7773V17H32.6602V7.00586H34.6631L39.5508 14.9287H39.5986C39.5895 14.6963 39.5781 14.4297 39.5645 14.1289C39.5508 13.8281 39.5371 13.5182 39.5234 13.1992C39.5143 12.8757 39.5075 12.5635 39.5029 12.2627V7.00586H41V17ZM47.0908 17H45.4434V8.40039H42.5176V7.00586H50.0098V8.40039H47.0908V17Z" fill="white"/>
</svg>
