<svg width="119" height="36" viewBox="0 0 119 36" fill="none" xmlns="http://www.w3.org/2000/svg">
<path d="M118.004 31.29C118.004 33.1309 116.493 34.622 114.625 34.622H4.04268C2.1751 34.622 0.65918 33.1309 0.65918 31.29V4.71821C0.65918 2.8782 2.1751 1.38184 4.04268 1.38184H114.624C116.493 1.38184 118.003 2.8782 118.003 4.71821L118.004 31.29Z" fill="#141414"/>
<path d="M114.268 1.42069C116.303 1.42069 117.959 3.04749 117.959 5.0467V30.9545C117.959 32.9537 116.303 34.5805 114.268 34.5805H4.39492C2.36007 34.5805 0.704286 32.9537 0.704286 30.9545V5.0467C0.704286 3.04749 2.36007 1.42069 4.39492 1.42069H114.268ZM114.268 0.728739H4.39492C1.97881 0.728739 0 2.6729 0 5.0467V30.9545C0 33.3283 1.97881 35.2725 4.39492 35.2725H114.268C116.684 35.2725 118.663 33.3283 118.663 30.9545V5.0467C118.663 2.6729 116.684 0.728739 114.268 0.728739Z" fill="#A6A6A6"/>
<path d="M26.4818 17.817C26.4563 15.0336 28.8015 13.6795 28.9087 13.6164C27.5806 11.7139 25.522 11.454 24.7986 11.4333C23.0696 11.2545 21.3925 12.4497 20.5118 12.4497C19.6134 12.4497 18.2572 11.4505 16.7954 11.4799C14.9144 11.5084 13.1546 12.5784 12.1895 14.2399C10.1977 17.6278 11.6832 22.6064 13.5915 25.3449C14.5461 26.686 15.6615 28.1835 17.1215 28.1308C18.5499 28.073 19.0834 27.2362 20.8071 27.2362C22.515 27.2362 23.016 28.1308 24.505 28.0972C26.0379 28.073 27.0031 26.75 27.9242 25.3967C29.0274 23.8595 29.4704 22.3456 29.4879 22.2679C29.4519 22.2558 26.5108 21.153 26.4818 17.817Z" fill="white"/>
<path d="M23.6691 9.63182C24.4373 8.68791 24.9629 7.40375 24.817 6.10059C23.7051 6.14895 22.3146 6.85623 21.5138 7.77941C20.8053 8.59292 20.1725 9.9263 20.336 11.1802C21.585 11.2718 22.8674 10.561 23.6691 9.63182Z" fill="white"/>
<path d="M47.1537 27.937H45.1575L44.0641 24.5612H40.2634L39.2218 27.937H37.2783L41.0439 16.4443H43.3697L47.1537 27.937ZM43.7345 23.145L42.7456 20.144C42.641 19.8374 42.445 19.1154 42.1558 17.9789H42.1206C42.0055 18.4677 41.82 19.1897 41.5651 20.144L40.5938 23.145H43.7345V23.145Z" fill="white"/>
<path d="M56.8371 23.6912C56.8371 25.1006 56.4494 26.2147 55.6742 27.0325C54.9798 27.7605 54.1175 28.1241 53.0882 28.1241C51.9771 28.1241 51.179 27.732 50.6929 26.9478H50.6578V31.3133H48.7838V22.3777C48.7838 21.4917 48.7601 20.5823 48.7144 19.6496H50.3625L50.4671 20.9631H50.5022C51.1272 19.9735 52.0756 19.4795 53.3484 19.4795C54.3434 19.4795 55.174 19.8655 55.8385 20.6384C56.5048 21.4122 56.8371 22.4295 56.8371 23.6912ZM54.9279 23.7586C54.9279 22.952 54.7433 22.287 54.3724 21.7637C53.9672 21.2179 53.4231 20.945 52.741 20.945C52.2786 20.945 51.8585 21.097 51.4832 21.3967C51.107 21.6989 50.8608 22.0936 50.7457 22.5824C50.6877 22.8104 50.6587 22.9969 50.6587 23.1437V24.5255C50.6587 25.1283 50.8468 25.6369 51.223 26.0523C51.5992 26.4677 52.0879 26.6749 52.6891 26.6749C53.3949 26.6749 53.9443 26.4072 54.3372 25.8735C54.731 25.339 54.9279 24.6343 54.9279 23.7586Z" fill="white"/>
<path d="M66.5388 23.6912C66.5388 25.1006 66.1512 26.2147 65.375 27.0325C64.6815 27.7605 63.8192 28.1241 62.7899 28.1241C61.6789 28.1241 60.8808 27.732 60.3956 26.9478H60.3604V31.3133H58.4864V22.3777C58.4864 21.4917 58.4627 20.5823 58.417 19.6496H60.0651L60.1697 20.9631H60.2048C60.8289 19.9735 61.7774 19.4795 63.051 19.4795C64.0451 19.4795 64.8758 19.8655 65.542 20.6384C66.2057 21.4122 66.5388 22.4295 66.5388 23.6912ZM64.6297 23.7586C64.6297 22.952 64.4442 22.287 64.0733 21.7637C63.668 21.2179 63.1257 20.945 62.4427 20.945C61.9795 20.945 61.5602 21.097 61.184 21.3967C60.8078 21.6989 60.5626 22.0936 60.4474 22.5824C60.3903 22.8104 60.3604 22.9969 60.3604 23.1437V24.5255C60.3604 25.1283 60.5485 25.6369 60.923 26.0523C61.2992 26.4668 61.7879 26.6749 62.3909 26.6749C63.0967 26.6749 63.6461 26.4072 64.039 25.8735C64.4328 25.339 64.6297 24.6343 64.6297 23.7586Z" fill="white"/>
<path d="M77.3856 24.7136C77.3856 25.6911 77.0401 26.4865 76.3466 27.1005C75.5845 27.7715 74.5236 28.1066 73.1603 28.1066C71.9016 28.1066 70.8925 27.8683 70.1287 27.3907L70.5629 25.8561C71.3856 26.3449 72.2883 26.5901 73.2719 26.5901C73.9777 26.5901 74.5271 26.433 74.9218 26.1204C75.3147 25.8077 75.5107 25.388 75.5107 24.8647C75.5107 24.3983 75.349 24.0054 75.0246 23.6867C74.702 23.3681 74.1632 23.0719 73.4108 22.7981C71.3628 22.0476 70.3396 20.9483 70.3396 19.5026C70.3396 18.5579 70.6982 17.7832 71.4164 17.1804C72.1319 16.5768 73.0864 16.2754 74.2801 16.2754C75.3446 16.2754 76.2288 16.4576 76.9346 16.8212L76.4661 18.3221C75.8069 17.9698 75.0615 17.7936 74.2274 17.7936C73.5681 17.7936 73.053 17.9534 72.6839 18.2712C72.3718 18.5553 72.2154 18.9016 72.2154 19.3118C72.2154 19.766 72.3938 20.1417 72.7524 20.437C73.0645 20.7099 73.6314 21.0053 74.4541 21.324C75.4606 21.7221 76.1998 22.1875 76.6753 22.7213C77.1491 23.2532 77.3856 23.9191 77.3856 24.7136Z" fill="white"/>
<path d="M83.5809 21.0316H81.5153V25.055C81.5153 26.0784 81.8792 26.5896 82.6087 26.5896C82.9436 26.5896 83.2214 26.5611 83.4411 26.5041L83.493 27.9023C83.1238 28.0379 82.6377 28.1061 82.0356 28.1061C81.2955 28.1061 80.7171 27.8842 80.2996 27.4411C79.8839 26.9973 79.6747 26.2528 79.6747 25.207V21.0298H78.4441V19.6481H79.6747V18.1308L81.5153 17.585V19.6481H83.5809V21.0316Z" fill="white"/>
<path d="M92.9017 23.725C92.9017 24.9988 92.5308 26.0446 91.7907 26.8625C91.0145 27.7045 89.9844 28.1242 88.7002 28.1242C87.4626 28.1242 86.4772 27.7209 85.7424 26.9143C85.0076 26.1077 84.6401 25.0895 84.6401 23.8623C84.6401 22.5782 85.0181 21.5263 85.7767 20.7085C86.5335 19.8898 87.5548 19.4805 88.839 19.4805C90.0767 19.4805 91.0725 19.8838 91.8241 20.6912C92.5431 21.4745 92.9017 22.4858 92.9017 23.725ZM90.9574 23.7846C90.9574 23.0203 90.7913 22.3649 90.4546 21.8182C90.0617 21.1567 89.5 20.8268 88.7722 20.8268C88.019 20.8268 87.4467 21.1576 87.0538 21.8182C86.7172 22.3657 86.5511 23.0316 86.5511 23.8192C86.5511 24.5834 86.7172 25.2389 87.0538 25.7847C87.459 26.4462 88.0251 26.7761 88.7555 26.7761C89.471 26.7761 90.0327 26.4393 90.4379 25.7674C90.7834 25.2104 90.9574 24.548 90.9574 23.7846Z" fill="white"/>
<path d="M98.9925 21.2689C98.807 21.2352 98.6092 21.2179 98.4018 21.2179C97.7425 21.2179 97.2327 21.4623 96.8741 21.952C96.5621 22.3838 96.4056 22.9295 96.4056 23.5885V27.9367H94.5325L94.5501 22.2594C94.5501 21.3043 94.5263 20.4346 94.4797 19.6505H96.112L96.1806 21.236H96.2324C96.4302 20.6911 96.7423 20.2524 97.1694 19.9234C97.587 19.6272 98.0379 19.4795 98.524 19.4795C98.6971 19.4795 98.8536 19.4916 98.9925 19.5132V21.2689Z" fill="white"/>
<path d="M107.374 23.4C107.374 23.7299 107.352 24.008 107.305 24.2351H101.683C101.705 25.0538 101.977 25.6799 102.499 26.1117C102.973 26.4977 103.585 26.6912 104.338 26.6912C105.17 26.6912 105.929 26.5608 106.612 26.2991L106.906 27.5772C106.108 27.9192 105.166 28.0893 104.078 28.0893C102.77 28.0893 101.744 27.7111 100.997 26.9554C100.251 26.1998 99.8777 25.1851 99.8777 23.9121C99.8777 22.6625 100.225 21.6219 100.92 20.792C101.648 19.9059 102.632 19.4629 103.869 19.4629C105.085 19.4629 106.005 19.9059 106.63 20.792C107.125 21.4958 107.374 22.3663 107.374 23.4ZM105.587 22.9224C105.599 22.3767 105.477 21.9051 105.223 21.507C104.898 20.9949 104.4 20.7393 103.729 20.7393C103.117 20.7393 102.618 20.9889 102.238 21.4897C101.926 21.8879 101.74 22.3654 101.683 22.9216H105.587V22.9224Z" fill="white"/>
<path d="M43.1145 9.37217C43.1145 10.3886 42.8043 11.1538 42.1846 11.6676C41.6106 12.1417 40.7949 12.3792 39.7384 12.3792C39.2145 12.3792 38.7662 12.3567 38.3909 12.3118V6.75807C38.8805 6.68035 39.4079 6.64062 39.9774 6.64062C40.9839 6.64062 41.7424 6.85566 42.254 7.28573C42.8271 7.77193 43.1145 8.46712 43.1145 9.37217ZM42.1433 9.39721C42.1433 8.73829 41.9657 8.23309 41.6106 7.88074C41.2555 7.52926 40.7369 7.35309 40.0539 7.35309C39.7638 7.35309 39.5169 7.37209 39.312 7.41181V11.6339C39.4254 11.6512 39.6329 11.659 39.9344 11.659C40.6393 11.659 41.1834 11.4664 41.5666 11.0812C41.9499 10.6961 42.1433 10.1347 42.1433 9.39721Z" fill="white"/>
<path d="M48.2646 10.2615C48.2646 10.8876 48.0826 11.4005 47.7187 11.803C47.3372 12.2166 46.8318 12.423 46.2007 12.423C45.5925 12.423 45.1081 12.2253 44.7469 11.828C44.3865 11.4316 44.2063 10.9316 44.2063 10.3288C44.2063 9.69841 44.3918 9.18112 44.7645 8.77955C45.1371 8.37797 45.6382 8.17676 46.2693 8.17676C46.8775 8.17676 47.3663 8.37452 47.7363 8.77091C48.0879 9.15607 48.2646 9.6535 48.2646 10.2615ZM47.3091 10.2908C47.3091 9.91517 47.2265 9.59305 47.0621 9.32447C46.8687 8.99976 46.5936 8.83741 46.2359 8.83741C45.8658 8.83741 45.5845 8.99976 45.3912 9.32447C45.2259 9.59305 45.1442 9.92035 45.1442 10.3072C45.1442 10.6829 45.2268 11.005 45.3912 11.2736C45.5907 11.5983 45.8685 11.7607 46.2271 11.7607C46.5787 11.7607 46.8547 11.5957 47.0533 11.265C47.2239 10.9912 47.3091 10.6665 47.3091 10.2908Z" fill="white"/>
<path d="M55.1697 8.25879L53.8732 12.3298H53.0294L52.4923 10.562C52.3561 10.1207 52.2453 9.68199 52.1592 9.24674H52.1425C52.0625 9.69408 51.9518 10.1319 51.8094 10.562L51.2389 12.3298H50.3854L49.1663 8.25879H50.1129L50.5814 10.1941C50.6948 10.6518 50.788 11.0879 50.8627 11.5007H50.8794C50.948 11.1605 51.0613 10.7269 51.2213 10.2027L51.8094 8.25965H52.56L53.1234 10.1613C53.2597 10.625 53.3704 11.0715 53.4557 11.5016H53.4812C53.5436 11.0827 53.6377 10.6363 53.7625 10.1613L54.2652 8.25965H55.1697V8.25879Z" fill="white"/>
<path d="M59.9447 12.3293H59.0235V9.99762C59.0235 9.27911 58.7458 8.91986 58.1885 8.91986C57.9151 8.91986 57.6945 9.01831 57.5231 9.21607C57.3535 9.41384 57.2673 9.64701 57.2673 9.91386V12.3285H56.3461V9.42161C56.3461 9.06408 56.3347 8.67633 56.3127 8.25662H57.1223L57.1654 8.89309H57.1908C57.2981 8.69533 57.4581 8.53211 57.6681 8.4017C57.9178 8.24971 58.1973 8.17285 58.5032 8.17285C58.8899 8.17285 59.2116 8.29548 59.4674 8.54161C59.7856 8.843 59.9447 9.29293 59.9447 9.89054V12.3293V12.3293Z" fill="white"/>
<path d="M62.485 12.3296H61.5647V6.39062H62.485V12.3296Z" fill="white"/>
<path d="M67.9086 10.2615C67.9086 10.8876 67.7267 11.4005 67.3628 11.803C66.9813 12.2166 66.475 12.423 65.8448 12.423C65.2356 12.423 64.7513 12.2253 64.3909 11.828C64.0305 11.4316 63.8503 10.9316 63.8503 10.3288C63.8503 9.69841 64.0358 9.18112 64.4085 8.77955C64.7812 8.37797 65.2822 8.17676 65.9124 8.17676C66.5216 8.17676 67.0094 8.37452 67.3803 8.77091C67.7319 9.15607 67.9086 9.6535 67.9086 10.2615ZM66.9523 10.2908C66.9523 9.91517 66.8697 9.59305 66.7053 9.32447C66.5128 8.99976 66.2368 8.83741 65.8799 8.83741C65.509 8.83741 65.2277 8.99976 65.0352 9.32447C64.87 9.59305 64.7882 9.92035 64.7882 10.3072C64.7882 10.6829 64.8708 11.005 65.0352 11.2736C65.2347 11.5983 65.5125 11.7607 65.8711 11.7607C66.2227 11.7607 66.4978 11.5957 66.6965 11.265C66.8679 10.9912 66.9523 10.6665 66.9523 10.2908Z" fill="white"/>
<path d="M72.3672 12.3306H71.5401L71.4716 11.8617H71.4461C71.163 12.2356 70.7596 12.423 70.2357 12.423C69.8446 12.423 69.5281 12.2995 69.2899 12.0543C69.0737 11.8315 68.9656 11.5543 68.9656 11.2252C68.9656 10.7278 69.1765 10.3487 69.6011 10.0862C70.0248 9.82363 70.6207 9.69495 71.3881 9.701V9.625C71.3881 9.08871 71.1015 8.821 70.5275 8.821C70.1188 8.821 69.7584 8.92204 69.4473 9.12239L69.26 8.52824C69.645 8.29421 70.1206 8.17676 70.6814 8.17676C71.7643 8.17676 72.3075 8.73809 72.3075 9.86076V11.36C72.3075 11.7667 72.3277 12.0906 72.3672 12.3306ZM71.4109 10.9316V10.3038C70.3948 10.2865 69.8868 10.5603 69.8868 11.1242C69.8868 11.3366 69.9448 11.4955 70.0634 11.6018C70.1821 11.708 70.3333 11.7607 70.5135 11.7607C70.7156 11.7607 70.9046 11.6976 71.0769 11.5724C71.2501 11.4463 71.3564 11.2866 71.396 11.0905C71.4056 11.0465 71.4109 10.9929 71.4109 10.9316Z" fill="white"/>
<path d="M77.6009 12.3296H76.7835L76.7404 11.6758H76.7149C76.4539 12.1732 76.0091 12.422 75.3841 12.422C74.8849 12.422 74.4691 12.2294 74.1395 11.8442C73.8099 11.4591 73.6455 10.959 73.6455 10.345C73.6455 9.6861 73.8239 9.1524 74.1826 8.74478C74.5298 8.3648 74.9552 8.17481 75.4615 8.17481C76.0179 8.17481 76.4073 8.35875 76.6288 8.72751H76.6464V6.39062H77.5684V11.2328C77.5684 11.6292 77.579 11.9945 77.6009 12.3296ZM76.6464 10.6127V9.93395C76.6464 9.8165 76.6376 9.7215 76.6209 9.64896C76.569 9.43134 76.4574 9.24825 76.2877 9.10058C76.1163 8.95291 75.9098 8.87864 75.6716 8.87864C75.3279 8.87864 75.0589 9.01249 74.8611 9.28107C74.6651 9.54965 74.5658 9.89249 74.5658 10.3113C74.5658 10.7138 74.6599 11.0402 74.8488 11.2915C75.0484 11.5592 75.3173 11.6931 75.654 11.6931C75.9564 11.6931 76.1981 11.5817 76.3818 11.358C76.5593 11.1516 76.6464 10.9029 76.6464 10.6127Z" fill="white"/>
<path d="M85.4797 10.2615C85.4797 10.8876 85.2977 11.4005 84.9338 11.803C84.5523 12.2166 84.0478 12.423 83.4158 12.423C82.8084 12.423 82.3241 12.2253 81.962 11.828C81.6016 11.4316 81.4214 10.9316 81.4214 10.3288C81.4214 9.69841 81.6069 9.18112 81.9795 8.77955C82.3522 8.37797 82.8533 8.17676 83.4852 8.17676C84.0926 8.17676 84.5822 8.37452 84.9514 8.77091C85.303 9.15607 85.4797 9.6535 85.4797 10.2615ZM84.5251 10.2908C84.5251 9.91517 84.4425 9.59305 84.2781 9.32447C84.0838 8.99976 83.8096 8.83741 83.451 8.83741C83.0818 8.83741 82.8005 8.99976 82.6063 9.32447C82.441 9.59305 82.3593 9.92035 82.3593 10.3072C82.3593 10.6829 82.4419 11.005 82.6063 11.2736C82.8058 11.5983 83.0835 11.7607 83.4422 11.7607C83.7938 11.7607 84.0706 11.5957 84.2693 11.265C84.4389 10.9912 84.5251 10.6665 84.5251 10.2908Z" fill="white"/>
<path d="M90.4324 12.3293H89.5121V9.99762C89.5121 9.27911 89.2343 8.91986 88.6761 8.91986C88.4028 8.91986 88.1822 9.01831 88.0116 9.21607C87.8411 9.41384 87.7558 9.64701 87.7558 9.91386V12.3285H86.8338V9.42161C86.8338 9.06408 86.8232 8.67633 86.8013 8.25662H87.6099L87.653 8.89309H87.6785C87.7866 8.69533 87.9466 8.53211 88.1558 8.4017C88.4063 8.24971 88.6849 8.17285 88.9917 8.17285C89.3776 8.17285 89.6993 8.29548 89.9551 8.54161C90.2741 8.843 90.4324 9.29293 90.4324 9.89054V12.3293V12.3293Z" fill="white"/>
<path d="M96.6317 8.9369H95.6174V10.9145C95.6174 11.4171 95.7976 11.6684 96.1544 11.6684C96.3197 11.6684 96.4568 11.6546 96.5649 11.6261L96.5886 12.3127C96.4067 12.38 96.1676 12.4137 95.8731 12.4137C95.5093 12.4137 95.2262 12.3049 95.0214 12.0873C94.8157 11.8697 94.7138 11.5035 94.7138 10.9897V8.9369H94.1082V8.25898H94.7138V7.51283L95.6165 7.24512V8.25811H96.6308V8.9369H96.6317Z" fill="white"/>
<path d="M101.509 12.3296H100.587V10.0151C100.587 9.28539 100.309 8.92009 99.7525 8.92009C99.3253 8.92009 99.0335 9.13167 98.8735 9.55483C98.8463 9.64378 98.8305 9.75259 98.8305 9.8804V12.3287H97.9102V6.39062H98.8305V8.84409H98.848C99.1381 8.39762 99.5539 8.17481 100.093 8.17481C100.474 8.17481 100.79 8.29744 101.04 8.54356C101.352 8.85014 101.509 9.30612 101.509 9.9089V12.3296V12.3296Z" fill="white"/>
<path d="M106.539 10.1006C106.539 10.2629 106.527 10.3994 106.505 10.5108H103.742C103.754 10.9132 103.886 11.2198 104.142 11.4322C104.376 11.6222 104.677 11.7172 105.047 11.7172C105.455 11.7172 105.828 11.6533 106.164 11.5246L106.308 12.1533C105.915 12.3209 105.453 12.4046 104.917 12.4046C104.276 12.4046 103.77 12.219 103.405 11.8476C103.037 11.4763 102.855 10.978 102.855 10.3527C102.855 9.73873 103.025 9.22748 103.367 8.81987C103.724 8.38462 104.206 8.16699 104.815 8.16699C105.411 8.16699 105.864 8.38462 106.17 8.81987C106.417 9.16531 106.539 9.59278 106.539 10.1006ZM105.66 9.86654C105.667 9.59797 105.606 9.36652 105.482 9.17135C105.322 8.92005 105.078 8.79396 104.749 8.79396C104.448 8.79396 104.203 8.91659 104.015 9.16271C103.863 9.35875 103.772 9.59278 103.742 9.86654H105.66Z" fill="white"/>
</svg>
