<svg width="119" height="36" viewBox="0 0 119 36" fill="none" xmlns="http://www.w3.org/2000/svg">
<path d="M114.611 35.2725H4.88913C2.47634 35.2725 0.500244 33.3283 0.500244 30.9545V5.04671C0.500244 2.67291 2.47634 0.728746 4.88913 0.728746H114.611C117.024 0.728746 119 2.67291 119 5.04671V30.9545C119 33.3283 117.024 35.2725 114.611 35.2725Z" fill="#141414"/>
<path d="M114.611 1.4207C116.643 1.4207 118.297 3.04749 118.297 5.04671V30.9545C118.297 32.9537 116.643 34.5805 114.611 34.5805H4.88913C2.85707 34.5805 1.20356 32.9537 1.20356 30.9545V5.04671C1.20356 3.04749 2.85707 1.4207 4.88913 1.4207H114.611ZM114.611 0.728746H4.88913C2.47634 0.728746 0.500244 2.67291 0.500244 5.04671V30.9545C0.500244 33.3283 2.47634 35.2725 4.88913 35.2725H114.611C117.024 35.2725 119 33.3283 119 30.9545V5.04671C119 2.67291 117.024 0.728746 114.611 0.728746Z" fill="#A6A6A6"/>
<path d="M42.1223 9.57509C42.1223 10.2962 41.9029 10.8737 41.4706 11.3044C40.9735 11.815 40.3262 12.072 39.5329 12.072C38.7747 12.072 38.1273 11.8107 37.5963 11.2958C37.0641 10.7733 36.7986 10.1321 36.7986 9.36459C36.7986 8.59707 37.0641 7.95585 37.5963 7.4377C38.1273 6.91846 38.7747 6.65723 39.5329 6.65723C39.9103 6.65723 40.2702 6.73387 40.6136 6.87636C40.956 7.01994 41.2346 7.21424 41.4365 7.45389L40.9779 7.90944C40.6257 7.50031 40.1462 7.29845 39.5329 7.29845C38.9799 7.29845 38.5004 7.48843 38.0933 7.87165C37.6906 8.25595 37.4887 8.7536 37.4887 9.36459C37.4887 9.97558 37.6906 10.4775 38.0933 10.8618C38.5004 11.2407 38.9799 11.4351 39.5329 11.4351C40.1199 11.4351 40.6136 11.2407 41.0031 10.8575C41.2599 10.6038 41.4058 10.2541 41.4442 9.80718H39.5329V9.18324H42.0828C42.1135 9.31817 42.1223 9.44879 42.1223 9.57509V9.57509Z" fill="white" stroke="white" stroke-width="0.133837" stroke-miterlimit="10"/>
<path d="M46.1678 7.41316H43.7726V9.05399H45.9319V9.67794H43.7726V11.3188H46.1678V11.9546H43.0945V6.77734H46.1678V7.41316Z" fill="white" stroke="white" stroke-width="0.133837" stroke-miterlimit="10"/>
<path d="M49.0227 11.9546H48.3447V7.41316H46.8755V6.77734H50.493V7.41316H49.0227V11.9546V11.9546Z" fill="white" stroke="white" stroke-width="0.133837" stroke-miterlimit="10"/>
<path d="M53.1116 11.9546V6.77734H53.7886V11.9546H53.1116Z" fill="white" stroke="white" stroke-width="0.133837" stroke-miterlimit="10"/>
<path d="M56.7891 11.9546H56.1165V7.41316H54.6418V6.77734H58.2638V7.41316H56.7891V11.9546Z" fill="white" stroke="white" stroke-width="0.133837" stroke-miterlimit="10"/>
<path d="M65.1123 11.2872C64.5933 11.8107 63.9504 12.072 63.1834 12.072C62.4121 12.072 61.7691 11.8107 61.2501 11.2872C60.7322 10.7647 60.4744 10.1235 60.4744 9.36459C60.4744 8.60571 60.7322 7.96449 61.2501 7.44202C61.7691 6.91846 62.4121 6.65723 63.1834 6.65723C63.946 6.65723 64.5889 6.91846 65.1079 7.44633C65.6302 7.97313 65.8881 8.61003 65.8881 9.36459C65.8881 10.1235 65.6302 10.7647 65.1123 11.2872ZM61.7515 10.8532C62.1421 11.2407 62.6172 11.4351 63.1834 11.4351C63.7452 11.4351 64.2247 11.2407 64.6109 10.8532C65.0004 10.4657 65.1979 9.96803 65.1979 9.36459C65.1979 8.76115 65.0004 8.26351 64.6109 7.87597C64.2247 7.48844 63.7452 7.29413 63.1834 7.29413C62.6172 7.29413 62.1421 7.48844 61.7515 7.87597C61.362 8.26351 61.1645 8.76115 61.1645 9.36459C61.1645 9.96803 61.362 10.4657 61.7515 10.8532V10.8532Z" fill="white" stroke="white" stroke-width="0.133837" stroke-miterlimit="10"/>
<path d="M66.8401 11.9546V6.77734H67.663L70.2217 10.8038H70.2513L70.2217 9.80855V6.77734H70.8987V11.9546H70.1921L67.5127 7.72945H67.4831L67.5127 8.72906V11.9546H66.8401V11.9546Z" fill="white" stroke="white" stroke-width="0.133837" stroke-miterlimit="10"/>
<path d="M60.3085 19.5144C58.2468 19.5144 56.5626 21.0581 56.5626 23.1879C56.5626 25.3005 58.2468 26.8604 60.3085 26.8604C62.3746 26.8604 64.0588 25.3005 64.0588 23.1879C64.0588 21.0581 62.3746 19.5144 60.3085 19.5144ZM60.3085 25.4138C59.1773 25.4138 58.204 24.4952 58.204 23.1879C58.204 21.8634 59.1773 20.9609 60.3085 20.9609C61.4397 20.9609 62.4174 21.8634 62.4174 23.1879C62.4174 24.4952 61.4397 25.4138 60.3085 25.4138V25.4138ZM52.1353 19.5144C50.0692 19.5144 48.3894 21.0581 48.3894 23.1879C48.3894 25.3005 50.0692 26.8604 52.1353 26.8604C54.2003 26.8604 55.8812 25.3005 55.8812 23.1879C55.8812 21.0581 54.2003 19.5144 52.1353 19.5144ZM52.1353 25.4138C51.003 25.4138 50.0264 24.4952 50.0264 23.1879C50.0264 21.8634 51.003 20.9609 52.1353 20.9609C53.2665 20.9609 54.2398 21.8634 54.2398 23.1879C54.2398 24.4952 53.2665 25.4138 52.1353 25.4138ZM42.4095 20.6403V22.2013H46.1982C46.0874 23.0735 45.7912 23.7147 45.3369 24.1616C44.7839 24.7014 43.9226 25.3005 42.4095 25.3005C40.0779 25.3005 38.2522 23.4492 38.2522 21.1553C38.2522 18.8613 40.0779 17.01 42.4095 17.01C43.6702 17.01 44.5875 17.4947 45.2645 18.123L46.3826 17.023C45.4357 16.1335 44.1761 15.4501 42.4095 15.4501C39.2122 15.4501 36.5251 18.0096 36.5251 21.1553C36.5251 24.3009 39.2122 26.8604 42.4095 26.8604C44.1377 26.8604 45.4357 26.3033 46.4561 25.2584C47.5017 24.2296 47.8276 22.7831 47.8276 21.6151C47.8276 21.2524 47.7969 20.9188 47.742 20.6403H42.4095ZM82.1794 21.8504C81.8711 21.0289 80.9198 19.5144 78.9821 19.5144C77.062 19.5144 75.4633 21.003 75.4633 23.1879C75.4633 25.2454 77.0455 26.8604 79.1664 26.8604C80.8814 26.8604 81.8711 25.8316 82.2781 25.2325L81.0054 24.398C80.5807 25.009 80.0025 25.4138 79.1664 25.4138C78.3358 25.4138 77.74 25.0393 77.3582 24.3009L82.3517 22.2682L82.1794 21.8504V21.8504ZM77.0883 23.0735C77.0455 21.6572 78.2064 20.9318 79.0381 20.9318C79.6898 20.9318 80.2428 21.2524 80.4271 21.7112L77.0883 23.0735V23.0735ZM73.0297 26.6369H74.6711V15.842H73.0297V26.6369ZM70.3415 20.3327H70.2866C69.918 19.903 69.2146 19.5144 68.3237 19.5144C66.454 19.5144 64.7446 21.1293 64.7446 23.1998C64.7446 25.2584 66.454 26.8604 68.3237 26.8604C69.2146 26.8604 69.918 26.4685 70.2866 26.0259H70.3415V26.5527C70.3415 27.9571 69.5789 28.7117 68.3489 28.7117C67.3461 28.7117 66.7239 27.9992 66.4672 27.4001L65.0397 27.9863C65.4512 28.96 66.5407 30.1582 68.3489 30.1582C70.2735 30.1582 71.8973 29.0442 71.8973 26.3336V19.7379H70.3415V20.3327V20.3327ZM68.4641 25.4138C67.3329 25.4138 66.386 24.4822 66.386 23.1998C66.386 21.9055 67.3329 20.9609 68.4641 20.9609C69.5789 20.9609 70.4578 21.9055 70.4578 23.1998C70.4578 24.4822 69.5789 25.4138 68.4641 25.4138V25.4138ZM89.8643 15.842H85.9385V26.6369H87.5755V22.5467H89.8643C91.6824 22.5467 93.4654 21.2524 93.4654 19.1938C93.4654 17.1363 91.678 15.842 89.8643 15.842V15.842ZM89.9071 21.0451H87.5755V17.3436H89.9071C91.1294 17.3436 91.8273 18.3421 91.8273 19.1938C91.8273 20.0293 91.1294 21.0451 89.9071 21.0451ZM100.027 19.4939C98.844 19.4939 97.614 20.0078 97.1082 21.1466L98.5609 21.7457C98.8736 21.1466 99.4485 20.9523 100.056 20.9523C100.906 20.9523 101.767 21.4543 101.78 22.3405V22.4539C101.484 22.2855 100.85 22.0361 100.07 22.0361C98.5049 22.0361 96.9107 22.8835 96.9107 24.465C96.9107 25.9115 98.1922 26.8431 99.6329 26.8431C100.734 26.8431 101.342 26.3541 101.724 25.7852H101.78V26.6196H103.361V22.4787C103.361 20.5648 101.909 19.4939 100.027 19.4939ZM99.8293 25.4095C99.2938 25.4095 98.5477 25.1483 98.5477 24.4952C98.5477 23.6597 99.4782 23.3391 100.284 23.3391C101.004 23.3391 101.342 23.4956 101.78 23.7018C101.652 24.7014 100.777 25.4095 99.8293 25.4095V25.4095ZM109.122 19.7303L107.24 24.4099H107.184L105.239 19.7303H103.473L106.396 26.2699L104.728 29.9088H106.439L110.943 19.7303H109.122V19.7303ZM94.3651 26.6369H96.0066V15.842H94.3651V26.6369Z" fill="white"/>
<path d="M9.66 7.24066C9.40215 7.50622 9.25293 7.91966 9.25293 8.45509V27.5535C9.25293 28.0889 9.40215 28.5023 9.66 28.7679L9.72364 28.8262L20.6015 18.1284V17.8758L9.72364 7.17805L9.66 7.24066Z" fill="url(#paint0_linear_2426_20563)"/>
<path d="M24.224 21.6943L20.6021 18.1266V17.874L24.2284 14.3063L24.3096 14.3527L28.6041 16.7567C29.8297 17.439 29.8297 18.5617 28.6041 19.2482L24.3096 21.6479L24.224 21.6943V21.6943Z" fill="url(#paint1_linear_2426_20563)"/>
<path d="M24.3091 21.6499L20.6016 18.0023L9.66016 28.7681C10.0672 29.1891 10.731 29.2398 11.4859 28.8188L24.3091 21.6499" fill="url(#paint2_linear_2426_20563)"/>
<path d="M24.3087 14.3524L11.4854 7.1835C10.7306 6.76682 10.0667 6.81755 9.65967 7.23855L20.6012 18L24.3087 14.3524Z" fill="url(#paint3_linear_2426_20563)"/>
<defs>
<linearGradient id="paint0_linear_2426_20563" x1="19.6357" y1="27.7523" x2="5.14442" y2="13.0231" gradientUnits="userSpaceOnUse">
<stop stop-color="#00A0FF"/>
<stop offset="0.0066" stop-color="#00A1FF"/>
<stop offset="0.2601" stop-color="#00BEFF"/>
<stop offset="0.5122" stop-color="#00D2FF"/>
<stop offset="0.7604" stop-color="#00DFFF"/>
<stop offset="1" stop-color="#00E3FF"/>
</linearGradient>
<linearGradient id="paint1_linear_2426_20563" x1="30.2" y1="17.9991" x2="8.96054" y2="17.9991" gradientUnits="userSpaceOnUse">
<stop stop-color="#FFE000"/>
<stop offset="0.4087" stop-color="#FFBD00"/>
<stop offset="0.7754" stop-color="#FFA500"/>
<stop offset="1" stop-color="#FF9C00"/>
</linearGradient>
<linearGradient id="paint2_linear_2426_20563" x1="22.2931" y1="16.0194" x2="2.64182" y2="-3.95462" gradientUnits="userSpaceOnUse">
<stop stop-color="#FF3A44"/>
<stop offset="1" stop-color="#C31162"/>
</linearGradient>
<linearGradient id="paint3_linear_2426_20563" x1="6.90547" y1="35.1197" x2="15.6807" y2="26.2005" gradientUnits="userSpaceOnUse">
<stop stop-color="#32A071"/>
<stop offset="0.0685" stop-color="#2DA771"/>
<stop offset="0.4762" stop-color="#15CF74"/>
<stop offset="0.8009" stop-color="#06E775"/>
<stop offset="1" stop-color="#00F076"/>
</linearGradient>
</defs>
</svg>
