<svg width="221" height="220" viewBox="0 0 221 220" fill="none" xmlns="http://www.w3.org/2000/svg">
<path d="M220.5 110C220.5 170.751 171.251 220 110.5 220C49.7487 220 0.5 170.751 0.5 110C0.5 49.2487 49.7487 0 110.5 0C171.251 0 220.5 49.2487 220.5 110ZM28 110C28 155.563 64.9365 192.5 110.5 192.5C156.063 192.5 193 155.563 193 110C193 64.4365 156.063 27.5 110.5 27.5C64.9365 27.5 28 64.4365 28 110Z" fill="#CAAE68"/>
<path d="M110.5 0C129.614 2.27929e-07 148.398 4.98046 165 14.4505C181.603 23.9206 195.452 37.5534 205.182 54.0054C214.911 70.4575 220.186 89.1608 220.486 108.272C220.787 127.384 216.102 146.243 206.894 162.993L182.795 149.745C189.701 137.183 193.215 123.038 192.99 108.704C192.765 94.3706 188.808 80.3431 181.511 68.0041C174.214 55.6651 163.827 45.4405 151.375 38.3379C138.923 31.2353 124.835 27.5 110.5 27.5V0Z" fill="#666666"/>
<path d="M76.7251 74V56.912H79.1731V71.552H84.0211V74H76.7251ZM91.5119 68.024L90.3119 61.832H90.2639L89.0639 68.024H91.5119ZM85.4639 74L89.2799 56.912H91.3199L95.1359 74H92.6879L91.9679 70.328H88.6319L87.9119 74H85.4639ZM87.8639 53.96C87.8639 53.288 88.1039 52.712 88.5839 52.232C89.0639 51.752 89.6399 51.512 90.3119 51.512C90.9839 51.512 91.5599 51.752 92.0399 52.232C92.5199 52.712 92.7599 53.288 92.7599 53.96C92.7599 54.632 92.5199 55.208 92.0399 55.688C91.5599 56.168 90.9839 56.408 90.3119 56.408C89.6399 56.408 89.0639 56.168 88.5839 55.688C88.1039 55.208 87.8639 54.632 87.8639 53.96ZM88.8479 53.96C88.8479 54.376 88.9839 54.728 89.2559 55.016C89.5439 55.288 89.8959 55.424 90.3119 55.424C90.7279 55.424 91.0719 55.288 91.3439 55.016C91.6319 54.728 91.7759 54.376 91.7759 53.96C91.7759 53.544 91.6319 53.2 91.3439 52.928C91.0719 52.64 90.7279 52.496 90.3119 52.496C89.8959 52.496 89.5439 52.64 89.2559 52.928C88.9839 53.2 88.8479 53.544 88.8479 53.96ZM97.2054 74V56.912H99.5574L103.253 67.208H103.301V56.912H105.749V74H103.445L99.7014 63.728H99.6534V74H97.2054ZM114.339 74V56.912H121.635V59.216H116.787V64.4H121.011V66.704H116.787V74H114.339ZM124.037 60.944C124.037 60.256 124.157 59.648 124.397 59.12C124.637 58.592 124.957 58.152 125.357 57.8C125.741 57.464 126.173 57.208 126.653 57.032C127.149 56.856 127.645 56.768 128.141 56.768C128.637 56.768 129.125 56.856 129.605 57.032C130.101 57.208 130.549 57.464 130.949 57.8C131.333 58.152 131.645 58.592 131.885 59.12C132.125 59.648 132.245 60.256 132.245 60.944V69.968C132.245 70.688 132.125 71.304 131.885 71.816C131.645 72.328 131.333 72.752 130.949 73.088C130.549 73.44 130.101 73.704 129.605 73.88C129.125 74.056 128.637 74.144 128.141 74.144C127.645 74.144 127.149 74.056 126.653 73.88C126.173 73.704 125.741 73.44 125.357 73.088C124.957 72.752 124.637 72.328 124.397 71.816C124.157 71.304 124.037 70.688 124.037 69.968V60.944ZM126.485 69.968C126.485 70.56 126.645 71 126.965 71.288C127.301 71.56 127.693 71.696 128.141 71.696C128.589 71.696 128.973 71.56 129.293 71.288C129.629 71 129.797 70.56 129.797 69.968V60.944C129.797 60.352 129.629 59.92 129.293 59.648C128.973 59.36 128.589 59.216 128.141 59.216C127.693 59.216 127.301 59.36 126.965 59.648C126.645 59.92 126.485 60.352 126.485 60.944V69.968ZM137.808 59.216V64.544H139.2C139.632 64.544 139.976 64.488 140.232 64.376C140.488 64.248 140.688 64.072 140.832 63.848C140.96 63.624 141.048 63.352 141.096 63.032C141.144 62.696 141.168 62.312 141.168 61.88C141.168 61.448 141.144 61.072 141.096 60.752C141.048 60.416 140.952 60.128 140.808 59.888C140.504 59.44 139.928 59.216 139.08 59.216H137.808ZM135.36 74V56.912H139.296C142.176 56.912 143.616 58.584 143.616 61.928C143.616 62.936 143.456 63.792 143.136 64.496C142.832 65.2 142.288 65.768 141.504 66.2L144.144 74H141.552L139.272 66.704H137.808V74H135.36Z" fill="white"/>
<path d="M111.454 130V124.064H100.086V118.688L108.318 90.128H114.366L105.798 118.688H111.454V107.32H117.166V118.688H119.91V124.064H117.166V130H111.454Z" fill="white"/>
<path d="M87.4703 163V145.912H91.1423C91.8143 145.912 92.4063 146 92.9183 146.176C93.4303 146.352 93.8943 146.664 94.3103 147.112C94.7263 147.56 95.0143 148.088 95.1743 148.696C95.3343 149.288 95.4143 150.096 95.4143 151.12C95.4143 151.888 95.3663 152.536 95.2703 153.064C95.1903 153.592 95.0063 154.088 94.7183 154.552C94.3823 155.112 93.9343 155.552 93.3743 155.872C92.8143 156.176 92.0783 156.328 91.1663 156.328H89.9183V163H87.4703ZM89.9183 148.216V154.024H91.0943C91.5903 154.024 91.9743 153.952 92.2463 153.808C92.5183 153.664 92.7183 153.464 92.8463 153.208C92.9743 152.968 93.0463 152.672 93.0623 152.32C93.0943 151.968 93.1103 151.576 93.1103 151.144C93.1103 150.744 93.1023 150.368 93.0863 150.016C93.0703 149.648 92.9983 149.328 92.8703 149.056C92.7423 148.784 92.5503 148.576 92.2943 148.432C92.0383 148.288 91.6703 148.216 91.1903 148.216H89.9183ZM98.0597 149.944C98.0597 149.256 98.1797 148.648 98.4197 148.12C98.6597 147.592 98.9797 147.152 99.3797 146.8C99.7637 146.464 100.196 146.208 100.676 146.032C101.172 145.856 101.668 145.768 102.164 145.768C102.66 145.768 103.148 145.856 103.628 146.032C104.124 146.208 104.572 146.464 104.972 146.8C105.356 147.152 105.668 147.592 105.908 148.12C106.148 148.648 106.268 149.256 106.268 149.944V158.968C106.268 159.688 106.148 160.304 105.908 160.816C105.668 161.328 105.356 161.752 104.972 162.088C104.572 162.44 104.124 162.704 103.628 162.88C103.148 163.056 102.66 163.144 102.164 163.144C101.668 163.144 101.172 163.056 100.676 162.88C100.196 162.704 99.7637 162.44 99.3797 162.088C98.9797 161.752 98.6597 161.328 98.4197 160.816C98.1797 160.304 98.0597 159.688 98.0597 158.968V149.944ZM100.508 158.968C100.508 159.56 100.668 160 100.988 160.288C101.324 160.56 101.716 160.696 102.164 160.696C102.612 160.696 102.996 160.56 103.316 160.288C103.652 160 103.82 159.56 103.82 158.968V149.944C103.82 149.352 103.652 148.92 103.316 148.648C102.996 148.36 102.612 148.216 102.164 148.216C101.716 148.216 101.324 148.36 100.988 148.648C100.668 148.92 100.508 149.352 100.508 149.944V158.968ZM109.454 163V145.912H111.902V163H109.454ZM115.145 163V145.912H117.497L121.193 156.208H121.241V145.912H123.689V163H121.385L117.641 152.728H117.593V163H115.145ZM128.473 163V148.216H125.641V145.912H133.753V148.216H130.921V163H128.473Z" fill="white"/>
</svg>
