<svg width="203" height="73" viewBox="0 0 203 73" fill="none" xmlns="http://www.w3.org/2000/svg">
<g clip-path="url(#clip0_2105_20145)">
<path d="M3.41529 2.6401C3.41529 2.91624 3.19144 3.1401 2.91529 3.1401H1.17529C0.899151 3.1401 0.675293 2.91624 0.675293 2.6401V0.850098C0.675293 0.573955 0.899151 0.350098 1.17529 0.350098H2.91529C3.19143 0.350098 3.41529 0.573955 3.41529 0.850098V2.6401Z" fill="white"/>
<path d="M15.5017 2.6401C15.5017 2.91624 15.2779 3.1401 15.0017 3.1401H13.2617C12.9856 3.1401 12.7617 2.91624 12.7617 2.6401V0.850098C12.7617 0.573955 12.9856 0.350098 13.2617 0.350098H15.0017C15.2779 0.350098 15.5017 0.573955 15.5017 0.850098V2.6401Z" fill="white"/>
<path d="M27.5886 2.6401C27.5886 2.91624 27.3648 3.1401 27.0886 3.1401H25.3486C25.0725 3.1401 24.8486 2.91624 24.8486 2.6401V0.850098C24.8486 0.573955 25.0725 0.350098 25.3486 0.350098H27.0886C27.3648 0.350098 27.5886 0.573955 27.5886 0.850098V2.6401Z" fill="white"/>
<path d="M39.6751 2.6401C39.6751 2.91624 39.4512 3.1401 39.1751 3.1401H37.4351C37.1589 3.1401 36.9351 2.91624 36.9351 2.6401V0.850098C36.9351 0.573955 37.1589 0.350098 37.4351 0.350098H39.1751C39.4512 0.350098 39.6751 0.573955 39.6751 0.850098V2.6401Z" fill="white"/>
<path d="M3.41529 52.6303C3.41529 52.9065 3.19144 53.1303 2.91529 53.1303H1.17529C0.899151 53.1303 0.675293 52.9065 0.675293 52.6303V50.8403C0.675293 50.5642 0.899151 50.3403 1.17529 50.3403H2.91529C3.19143 50.3403 3.41529 50.5642 3.41529 50.8403V52.6303Z" fill="white"/>
<path d="M15.5017 52.6303C15.5017 52.9065 15.2779 53.1303 15.0017 53.1303H13.2617C12.9856 53.1303 12.7617 52.9065 12.7617 52.6303V50.8403C12.7617 50.5642 12.9856 50.3403 13.2617 50.3403H15.0017C15.2779 50.3403 15.5017 50.5642 15.5017 50.8403V52.6303Z" fill="white"/>
<path d="M27.5886 52.6303C27.5886 52.9065 27.3648 53.1303 27.0886 53.1303H25.3486C25.0725 53.1303 24.8486 52.9065 24.8486 52.6303V50.8403C24.8486 50.5642 25.0725 50.3403 25.3486 50.3403H27.0886C27.3648 50.3403 27.5886 50.5642 27.5886 50.8403V52.6303Z" fill="white"/>
<path d="M39.6751 52.6303C39.6751 52.9065 39.4512 53.1303 39.1751 53.1303H37.4351C37.1589 53.1303 36.9351 52.9065 36.9351 52.6303V50.8403C36.9351 50.5642 37.1589 50.3403 37.4351 50.3403H39.1751C39.4512 50.3403 39.6751 50.5642 39.6751 50.8403V52.6303Z" fill="white"/>
<path d="M57.6253 19.79V22.6H49.4153V53.13H46.6753V0.709961H57.6253V3.51996H49.4153V19.79H57.6253Z" fill="white"/>
<path d="M65.325 53.13H62.585V0.709961H65.325V53.13Z" fill="white"/>
<path d="M99.8853 50.3901V53.1301H70.6553V0.350098H73.4653V50.3901H99.8953H99.8853ZM99.8853 5.8901V46.2101H97.1453V5.8901C97.1453 4.3801 95.9953 3.1501 94.3353 3.1501C92.6753 3.1501 91.5253 4.2301 91.5253 5.8901V46.2101H88.7853V5.8901C88.7853 4.3801 87.4853 3.1501 85.9753 3.1501C84.4653 3.1501 83.1653 4.2301 83.1653 5.8901V46.2101H80.4253V0.350098H83.1653V1.7201C83.9553 0.860098 85.1053 0.350098 86.2653 0.350098C88.2053 0.350098 89.2153 1.1401 90.1553 2.2201C91.1653 1.1401 92.7453 0.350098 94.4053 0.350098C97.5053 0.350098 99.8753 2.5101 99.8753 5.8901H99.8853Z" fill="white"/>
<path d="M113.205 6.0401V5.9001C113.205 4.3901 111.985 3.1601 110.395 3.1601C108.805 3.1601 107.655 4.3801 107.655 5.9001V17.0601C107.655 18.5701 108.805 19.8001 110.395 19.8001C113.495 19.8001 116.015 22.0301 116.015 25.3401V47.5901C116.015 50.6901 113.495 53.1301 110.395 53.1301C107.295 53.1301 104.855 50.8301 104.855 47.5901V47.4501H107.665V47.5901C107.665 49.1001 108.885 50.4001 110.405 50.4001C111.925 50.4001 113.215 49.1001 113.215 47.5901V25.3401C113.215 23.8301 111.995 22.6801 110.475 22.5301C107.165 22.2401 104.855 20.5901 104.855 16.9101V5.8901C104.855 2.9401 107.305 0.350098 110.395 0.350098C113.485 0.350098 116.015 2.5801 116.015 5.8901V6.0301H113.205V6.0401Z" fill="white"/>
<path d="M130.776 3.51996H126.676V53.13H123.866V3.51996H119.686V0.709961H130.776V3.51996Z" fill="white"/>
<path d="M146.175 25.41V53.13H143.365V25.41C143.365 23.83 142.145 22.6 140.625 22.6H137.815V53.13H135.005V0.709961H140.625C143.935 0.709961 146.165 3.08996 146.165 6.24996V17.05C146.165 18.63 145.585 20 144.295 21.23C145.515 22.17 146.095 23.75 146.165 25.41H146.175ZM140.635 19.79C142.145 19.79 143.375 18.57 143.375 17.05V6.25996C143.375 4.74996 142.155 3.51996 140.635 3.51996H137.825V19.79H140.635Z" fill="white"/>
<path d="M154.245 53.13H151.505V0.709961H154.245V53.13Z" fill="white"/>
<path d="M159.565 0.709961H165.105C168.485 0.709961 170.645 3.15996 170.645 6.24996V17.05C170.645 18.49 170.065 19.86 168.775 21.23C169.925 22.31 170.575 23.68 170.645 25.41V47.66C170.645 50.76 168.485 53.13 165.105 53.13H159.565V0.709961ZM165.105 19.79C166.615 19.79 167.915 18.57 167.915 17.05V6.25996C167.915 4.74996 166.765 3.51996 165.105 3.51996H162.295V19.79H165.105ZM165.105 50.39C166.765 50.39 167.915 49.17 167.915 47.65V25.4C167.915 23.82 166.615 22.59 165.105 22.59H162.295V50.38H165.105V50.39Z" fill="white"/>
<path d="M186.925 19.79V22.6H178.575V50.32H186.925V53.13H175.835V0.709961H186.925V3.51996H178.575V19.79H186.925Z" fill="white"/>
<path d="M202.835 5.8901V53.1301H200.025V5.8901C200.025 4.3801 198.805 3.1501 197.285 3.1501C195.625 3.1501 194.475 4.3701 194.475 5.8901V53.1301H191.665V0.350098H194.475V1.7201C195.125 0.930098 196.495 0.350098 197.575 0.350098C200.885 0.350098 202.835 2.8701 202.835 5.8901Z" fill="white"/>
<path d="M0.675293 72.6205V61.2305H3.75795C4.43147 61.2305 5.01432 61.3105 5.49356 61.4705C5.9728 61.6305 6.36136 61.8405 6.65927 62.1105C6.95717 62.3805 7.17736 62.6805 7.30688 63.0305C7.43641 63.3805 7.50117 63.7405 7.50117 64.1105V64.5305C7.50117 64.8405 7.47526 65.1005 7.4105 65.3105C7.34574 65.5205 7.25508 65.7105 7.12555 65.8705C6.89241 66.1705 6.52975 66.4205 6.05051 66.6405C6.5427 66.8205 6.91831 67.0905 7.15146 67.4405C7.3846 67.7905 7.50117 68.2705 7.50117 68.8805V69.5205C7.50117 70.5205 7.19031 71.2905 6.55565 71.8205C5.92099 72.3505 4.92366 72.6205 3.53776 72.6205H0.675293ZM2.78652 62.7605V65.9005H3.74499C4.44442 65.9005 4.92366 65.7605 5.16975 65.4905C5.41584 65.2205 5.53242 64.8205 5.53242 64.3005C5.53242 63.7805 5.40289 63.4005 5.13089 63.1505C4.85889 62.8905 4.37966 62.7705 3.66728 62.7705H2.79947L2.78652 62.7605ZM2.78652 67.3405V70.9905H3.69319C4.12061 70.9905 4.45737 70.9405 4.70347 70.8505C4.94956 70.7505 5.13089 70.6205 5.24746 70.4505C5.37699 70.2805 5.44175 70.0805 5.48061 69.8405C5.50651 69.6105 5.51946 69.3505 5.51946 69.0705C5.51946 68.7905 5.49356 68.5305 5.4547 68.3205C5.41584 68.1105 5.32518 67.9305 5.20861 67.7805C5.06613 67.6305 4.8848 67.5205 4.65166 67.4505C4.41852 67.3805 4.10766 67.3505 3.71909 67.3505H2.78652V67.3405Z" fill="#CCB26F"/>
<path d="M10.2471 72.6205V61.2305H12.3583V72.6205H10.2471Z" fill="#CCB26F"/>
<path d="M15.1043 72.6205V61.2305H18.1869C18.8604 61.2305 19.4433 61.3105 19.9225 61.4705C20.4018 61.6305 20.7903 61.8405 21.0882 62.1105C21.3861 62.3805 21.6063 62.6805 21.7359 63.0305C21.8654 63.3805 21.9301 63.7405 21.9301 64.1105V64.5305C21.9301 64.8405 21.9042 65.1005 21.8395 65.3105C21.7747 65.5205 21.684 65.7105 21.5545 65.8705C21.3214 66.1705 20.9587 66.4205 20.4795 66.6405C20.9717 66.8205 21.3473 67.0905 21.5804 67.4405C21.8136 67.7905 21.9301 68.2705 21.9301 68.8805V69.5205C21.9301 70.5205 21.6193 71.2905 20.9846 71.8205C20.35 72.3505 19.3526 72.6205 17.9667 72.6205H15.0913H15.1043ZM17.2155 62.7605V65.9005H18.174C18.8734 65.9005 19.3526 65.7605 19.5987 65.4905C19.8448 65.2205 19.9614 64.8205 19.9614 64.3005C19.9614 63.7805 19.8319 63.4005 19.5599 63.1505C19.2879 62.8905 18.8086 62.7705 18.0962 62.7705H17.2284L17.2155 62.7605ZM17.2155 67.3405V70.9905H18.1222C18.5496 70.9905 18.8863 70.9405 19.1324 70.8505C19.3785 70.7505 19.5599 70.6205 19.6764 70.4505C19.806 70.2805 19.8707 70.0805 19.9096 69.8405C19.9355 69.6105 19.9484 69.3505 19.9484 69.0705C19.9484 68.7905 19.9225 68.5305 19.8837 68.3205C19.8448 68.1105 19.7541 67.9305 19.6376 67.7805C19.4951 67.6305 19.3138 67.5205 19.0806 67.4505C18.8475 67.3805 18.5366 67.3505 18.1481 67.3505H17.2155V67.3405Z" fill="#CCB26F"/>
<path d="M24.6113 72.6205V61.2305H26.7226V70.9905H30.9062V72.6205H24.6113Z" fill="#CCB26F"/>
<path d="M33.0303 72.6205V61.2305H35.1415V72.6205H33.0303Z" fill="#CCB26F"/>
<path d="M37.7578 63.9204C37.7578 63.4604 37.8614 63.0604 38.0687 62.7004C38.2759 62.3504 38.5479 62.0504 38.8976 61.8204C39.2344 61.6004 39.61 61.4304 40.0245 61.3104C40.4519 61.1904 40.8664 61.1304 41.2938 61.1304C41.7212 61.1304 42.1487 61.1904 42.5631 61.3104C42.9906 61.4304 43.3662 61.6004 43.7159 61.8204C44.0526 62.0504 44.3117 62.3504 44.5189 62.7004C44.7262 63.0504 44.8298 63.4604 44.8298 63.9204V69.9404C44.8298 70.4204 44.7262 70.8304 44.5189 71.1704C44.3117 71.5104 44.0397 71.7904 43.7159 72.0204C43.3662 72.2504 42.9906 72.4304 42.5631 72.5504C42.1357 72.6704 41.7212 72.7304 41.2938 72.7304C40.8664 72.7304 40.4389 72.6704 40.0245 72.5504C39.61 72.4304 39.2214 72.2604 38.8976 72.0204C38.5479 71.8004 38.2759 71.5104 38.0687 71.1704C37.8614 70.8304 37.7578 70.4204 37.7578 69.9404V63.9204ZM39.869 69.9404C39.869 70.3304 40.0115 70.6304 40.2965 70.8104C40.5814 70.9904 40.9182 71.0904 41.3068 71.0904C41.6953 71.0904 42.0321 71.0004 42.317 70.8104C42.602 70.6204 42.7445 70.3304 42.7445 69.9404V63.9204C42.7445 63.5304 42.602 63.2304 42.317 63.0504C42.0321 62.8604 41.6953 62.7704 41.3068 62.7704C40.9182 62.7704 40.5814 62.8604 40.2965 63.0504C40.0115 63.2404 39.869 63.5304 39.869 63.9204V69.9404Z" fill="#CCB26F"/>
<path d="M48.5344 72.6202V62.7602H46.0864V61.2202H53.0936V62.7602H50.6456V72.6202H48.5344Z" fill="#CCB26F"/>
<path d="M54.6992 72.6205V61.2305H60.9941V62.7705H56.8104V66.1105H60.463V67.6505H56.8104V70.9905H60.9941V72.6205H54.6992Z" fill="#CCB26F"/>
<path d="M63.0535 72.6205V61.2305H65.1647V66.4305H65.2036L68.2862 61.2305H70.3974L67.522 65.7905L70.9414 72.6205H68.7007L66.2916 67.5605L65.1518 69.2105V72.6205H63.0405H63.0535Z" fill="#CCB26F"/>
<path d="M72.5737 72.6205V61.2305H78.8686V62.7705H74.685V66.1105H78.3375V67.6505H74.685V70.9905H78.8686V72.6205H72.5737Z" fill="#CCB26F"/>
<path d="M80.9148 72.6205V61.2305H84.3083C86.7952 61.2305 88.0386 62.3405 88.0386 64.5705C88.0386 65.2405 87.9091 65.8105 87.6371 66.2805C87.3651 66.7505 86.8988 67.1305 86.2123 67.4205L88.4919 72.6205H86.2512L84.2824 67.7605H83.0131V72.6205H80.9019H80.9148ZM83.026 62.7605V66.3105H84.2306C84.6062 66.3105 84.9041 66.2705 85.1243 66.1905C85.3445 66.1105 85.5129 66.0005 85.6424 65.8505C85.759 65.7005 85.8237 65.5205 85.8755 65.3005C85.9144 65.0805 85.9403 64.8305 85.9403 64.5405C85.9403 64.2505 85.9144 64.0005 85.8755 63.7805C85.8367 63.5605 85.746 63.3705 85.6295 63.2105C85.3704 62.9105 84.8653 62.7605 84.1399 62.7605H83.039H83.026Z" fill="#CCB26F"/>
<path d="M90.344 72.6205V61.2305H92.3775L95.5638 68.0905H95.6027V61.2305H97.7139V72.6205H95.7192L92.4811 65.7705H92.4423V72.6205H90.3311H90.344Z" fill="#CCB26F"/>
<path d="M100.317 72.6205V61.2305H106.612V62.7705H102.429V66.1105H106.081V67.6505H102.429V70.9905H106.612V72.6205H100.317Z" fill="#CCB26F"/>
<path d="M115.511 64.5104H113.399V64.1404C113.399 63.7704 113.283 63.4404 113.063 63.1704C112.829 62.9004 112.454 62.7604 111.91 62.7604C111.625 62.7604 111.379 62.8004 111.21 62.8904C111.029 62.9804 110.887 63.0804 110.77 63.2104C110.654 63.3504 110.589 63.5104 110.537 63.6804C110.498 63.8604 110.472 64.0404 110.472 64.2304C110.472 64.4504 110.472 64.6404 110.498 64.7904C110.524 64.9404 110.576 65.0704 110.654 65.1904C110.731 65.3104 110.861 65.4104 111.016 65.4904C111.172 65.5804 111.392 65.6604 111.664 65.7504L113.283 66.2504C113.749 66.3904 114.138 66.5504 114.423 66.7404C114.708 66.9304 114.941 67.1404 115.109 67.3904C115.265 67.6504 115.368 67.9404 115.42 68.2604C115.472 68.5804 115.498 68.9604 115.498 69.3704C115.498 69.8504 115.433 70.3004 115.316 70.7104C115.187 71.1204 114.993 71.4704 114.721 71.7604C114.436 72.0604 114.047 72.2904 113.581 72.4604C113.114 72.6304 112.532 72.7204 111.858 72.7204C111.353 72.7204 110.874 72.6504 110.433 72.5104C109.993 72.3704 109.617 72.1804 109.294 71.9304C108.97 71.6804 108.724 71.4004 108.542 71.0704C108.361 70.7404 108.257 70.3904 108.257 70.0104V69.4004H110.369V69.9104C110.369 70.2104 110.485 70.4804 110.705 70.7204C110.938 70.9604 111.314 71.0804 111.858 71.0804C112.221 71.0804 112.493 71.0404 112.7 70.9604C112.894 70.8804 113.05 70.7704 113.166 70.6204C113.27 70.4704 113.348 70.2904 113.361 70.0804C113.373 69.8704 113.386 69.6404 113.386 69.3804C113.386 69.0804 113.373 68.8404 113.348 68.6404C113.322 68.4504 113.27 68.2904 113.179 68.1804C113.089 68.0604 112.959 67.9704 112.791 67.8904C112.635 67.8204 112.415 67.7404 112.156 67.6504L110.641 67.1704C109.734 66.8804 109.112 66.5004 108.801 66.0304C108.49 65.5604 108.335 64.9604 108.335 64.2504C108.335 63.8204 108.413 63.4204 108.568 63.0304C108.724 62.6504 108.944 62.3204 109.255 62.0404C109.54 61.7604 109.915 61.5404 110.369 61.3804C110.822 61.2104 111.353 61.1304 111.975 61.1304C112.506 61.1304 112.985 61.2004 113.412 61.3504C113.853 61.5004 114.228 61.7004 114.539 61.9404C115.174 62.4504 115.498 63.0404 115.498 63.7004V64.5004L115.511 64.5104Z" fill="#CCB26F"/>
<path d="M122.311 72.6205V61.2305H128.605V62.7705H124.422V66.2305H128.074V67.7705H124.422V72.6305H122.311V72.6205Z" fill="#CCB26F"/>
<path d="M130.716 72.6205V61.2305H132.828V72.6205H130.716Z" fill="#CCB26F"/>
<path d="M135.574 72.6205V61.2305H137.685V70.9905H141.869V72.6205H135.574Z" fill="#CCB26F"/>
<path d="M143.915 72.6205V61.2305H145.949L148.669 67.2605H148.707L151.401 61.2305H153.448V72.6205H151.337V65.6905H151.298L149.2 70.5905H148.15L146.078 65.6905H146.039V72.6205H143.928H143.915Z" fill="#CCB26F"/>
<path d="M157.515 72.6202V62.7602H155.067V61.2202H162.074V62.7602H159.626V72.6202H157.515Z" fill="#CCB26F"/>
<path d="M163.758 72.6205V61.2305H165.869V72.6205H163.758Z" fill="#CCB26F"/>
<path d="M168.602 72.6205V61.2305H170.713V70.9905H174.897V72.6205H168.602Z" fill="#CCB26F"/>
<path d="M176.957 72.6205V61.2305H180.039C180.713 61.2305 181.296 61.3105 181.775 61.4705C182.254 61.6305 182.643 61.8405 182.941 62.1105C183.252 62.3805 183.459 62.6805 183.588 63.0305C183.718 63.3805 183.783 63.7405 183.783 64.1105V64.5305C183.783 64.8405 183.757 65.1005 183.692 65.3105C183.627 65.5205 183.537 65.7105 183.407 65.8705C183.174 66.1705 182.811 66.4205 182.332 66.6405C182.824 66.8205 183.2 67.0905 183.433 67.4405C183.666 67.7905 183.783 68.2705 183.783 68.8805V69.5205C183.783 70.5205 183.472 71.2905 182.837 71.8205C182.202 72.3505 181.205 72.6205 179.819 72.6205H176.944H176.957ZM179.068 62.7605V65.9005H180.027C180.726 65.9005 181.205 65.7605 181.451 65.4905C181.697 65.2205 181.814 64.8205 181.814 64.3005C181.814 63.7805 181.684 63.4005 181.412 63.1505C181.14 62.8905 180.661 62.7705 179.949 62.7705H179.081L179.068 62.7605ZM179.068 67.3405V70.9905H179.975C180.402 70.9905 180.739 70.9405 180.985 70.8505C181.231 70.7505 181.412 70.6205 181.529 70.4505C181.659 70.2805 181.736 70.0805 181.762 69.8405C181.788 69.6105 181.801 69.3505 181.801 69.0705C181.801 68.7905 181.775 68.5305 181.736 68.3205C181.697 68.1105 181.607 67.9305 181.49 67.7805C181.348 67.6305 181.166 67.5205 180.933 67.4505C180.7 67.3805 180.389 67.3505 180.001 67.3505H179.068V67.3405Z" fill="#CCB26F"/>
<path d="M193.302 61.2305V70.0605C193.302 70.4305 193.211 70.7805 193.043 71.0905C192.875 71.4005 192.628 71.6805 192.305 71.9305C191.981 72.1805 191.618 72.3705 191.204 72.5105C190.789 72.6505 190.349 72.7205 189.883 72.7205C189.416 72.7205 188.976 72.6505 188.561 72.5105C188.16 72.3705 187.797 72.1805 187.473 71.9305C187.15 71.6805 186.904 71.4005 186.722 71.0905C186.541 70.7805 186.45 70.4305 186.45 70.0605V61.2305H188.561V69.9005C188.561 70.3105 188.691 70.6005 188.937 70.8005C189.183 70.9905 189.494 71.0905 189.87 71.0905C190.245 71.0905 190.556 70.9905 190.802 70.8005C191.048 70.6105 191.178 70.3105 191.178 69.9005V61.2305H193.289H193.302Z" fill="#CCB26F"/>
<path d="M195.983 72.6205V61.2305H199.118C200.335 61.2305 201.255 61.4905 201.89 62.0005C202.524 62.5105 202.835 63.2405 202.835 64.1805V69.5105C202.835 70.5805 202.498 71.3605 201.825 71.8705C201.151 72.3805 200.193 72.6305 198.937 72.6305H195.996L195.983 72.6205ZM198.095 62.7605V71.0805H199.066C199.662 71.0805 200.076 70.9705 200.335 70.7405C200.594 70.5105 200.711 70.1505 200.711 69.6605V64.1705C200.711 63.7205 200.594 63.3805 200.361 63.1305C200.128 62.8805 199.701 62.7605 199.079 62.7605H198.108H198.095Z" fill="#CCB26F"/>
</g>
<defs>
<clipPath id="clip0_2105_20145">
<rect width="202.16" height="72.3801" fill="white" transform="translate(0.675293 0.350098)"/>
</clipPath>
</defs>
</svg>
