<svg width="202" height="98" viewBox="0 0 202 98" fill="none" xmlns="http://www.w3.org/2000/svg">
<path d="M5.858 28.237V5.411H17.372V1.472H2.02V75H5.858V32.176H17.372V28.237H5.858ZM25.7937 1.472H21.9557V75H25.7937V1.472ZM64.1626 0.966996C61.8396 0.966996 59.6176 2.07799 58.2036 3.593C56.8906 2.07799 55.4766 0.966996 52.7496 0.966996C51.1336 0.966996 49.5176 1.674 48.4066 2.886V0.966996H44.5686V65.304H48.4066V8.744C48.4066 6.421 50.1236 4.906 52.3456 4.906C54.4666 4.906 56.2846 6.623 56.2846 8.744V65.304H60.1226V8.744C60.1226 6.421 61.8396 4.906 64.0616 4.906C66.3846 4.906 68.0006 6.623 68.0006 8.744V65.304H71.8386V8.744C71.8386 3.997 68.5056 0.966996 64.1626 0.966996ZM34.7716 71.162V0.966996H30.8326V75H71.8386V71.162H34.7716ZM92.0441 8.946V8.744C92.0441 4.098 88.3071 0.966996 84.1661 0.966996C79.8231 0.966996 76.3891 4.603 76.3891 8.744V24.197C76.3891 29.348 79.6211 31.671 84.2671 32.075C86.3881 32.277 88.1051 33.893 88.1051 36.014V67.223C88.1051 69.344 86.3881 71.162 84.1661 71.162C82.0451 71.162 80.3281 69.344 80.3281 67.223V67.021H76.3891V67.223C76.3891 71.768 80.0251 75 84.1661 75C88.5091 75 92.0441 71.566 92.0441 67.223V36.014C92.0441 31.368 88.5091 28.237 84.1661 28.237C81.9441 28.237 80.3281 26.52 80.3281 24.399V8.744C80.3281 6.623 82.0451 4.906 84.1661 4.906C86.3881 4.906 88.1051 6.623 88.1051 8.744V8.946H92.0441ZM110.364 1.472H94.8098V5.411H100.668V75H104.607V5.411H110.364V1.472ZM126.91 30.257C128.728 28.54 129.536 26.621 129.536 24.399V9.249C129.536 4.80499 126.405 1.472 121.759 1.472H113.881V75H117.82V32.176H121.759C123.88 32.176 125.597 33.893 125.597 36.115V75H129.536V36.115C129.435 33.792 128.627 31.57 126.91 30.257ZM117.82 28.237V5.411H121.759C123.88 5.411 125.597 7.12799 125.597 9.249V24.399C125.597 26.52 123.88 28.237 121.759 28.237H117.82ZM138.432 1.472H134.594V75H138.432V1.472ZM143.471 75H151.248C155.995 75 159.025 71.667 159.025 67.324V36.115C158.924 33.691 158.015 31.772 156.399 30.257C158.217 28.338 159.025 26.419 159.025 24.399V9.249C159.025 4.906 155.995 1.472 151.248 1.472H143.471V75ZM147.309 71.162V32.176H151.248C153.369 32.176 155.187 33.893 155.187 36.115V67.324C155.187 69.445 153.571 71.162 151.248 71.162H147.309ZM147.309 28.237V5.411H151.248C153.571 5.411 155.187 7.12799 155.187 9.249V24.399C155.187 26.52 153.369 28.237 151.248 28.237H147.309ZM167.722 28.237V5.411H179.438V1.472H163.884V75H179.438V71.061H167.722V32.176H179.438V28.237H167.722ZM191.995 0.966996C190.48 0.966996 188.561 1.775 187.652 2.886V0.966996H183.713V75H187.652V8.744C187.652 6.623 189.268 4.906 191.591 4.906C193.712 4.906 195.429 6.623 195.429 8.744V75H199.368V8.744C199.368 4.502 196.641 0.966996 191.995 0.966996Z" fill="white"/>
<path d="M1.96 97V82.76H4.94C5.59333 82.76 6.14667 82.86 6.6 83.06C7.06667 83.26 7.44667 83.5267 7.74 83.86C8.03333 84.1933 8.24 84.58 8.36 85.02C8.49333 85.4467 8.56 85.8933 8.56 86.36V86.88C8.56 87.2667 8.52667 87.5933 8.46 87.86C8.40667 88.1267 8.32 88.36 8.2 88.56C7.97333 88.9333 7.62667 89.2533 7.16 89.52C7.64 89.7467 7.99333 90.08 8.22 90.52C8.44667 90.96 8.56 91.56 8.56 92.32V93.12C8.56 94.3733 8.25333 95.3333 7.64 96C7.04 96.6667 6.07333 97 4.74 97H1.96ZM4 90.4V94.96H4.88C5.29333 94.96 5.61333 94.9 5.84 94.78C6.08 94.66 6.26 94.4933 6.38 94.28C6.5 94.0667 6.57333 93.8133 6.6 93.52C6.62667 93.2267 6.64 92.9067 6.64 92.56C6.64 92.2 6.62 91.8867 6.58 91.62C6.54 91.3533 6.46 91.1267 6.34 90.94C6.20667 90.7533 6.02667 90.62 5.8 90.54C5.57333 90.4467 5.27333 90.4 4.9 90.4H4ZM4 84.68V88.6H4.92C5.6 88.6 6.05333 88.4333 6.28 88.1C6.52 87.7533 6.64 87.2533 6.64 86.6C6.64 85.96 6.50667 85.48 6.24 85.16C5.98667 84.84 5.52 84.68 4.84 84.68H4ZM11.3356 97V82.76H13.3756V97H11.3356ZM16.1577 97V82.76H19.1377C19.791 82.76 20.3443 82.86 20.7977 83.06C21.2643 83.26 21.6443 83.5267 21.9377 83.86C22.231 84.1933 22.4377 84.58 22.5577 85.02C22.691 85.4467 22.7577 85.8933 22.7577 86.36V86.88C22.7577 87.2667 22.7243 87.5933 22.6577 87.86C22.6043 88.1267 22.5177 88.36 22.3977 88.56C22.171 88.9333 21.8243 89.2533 21.3577 89.52C21.8377 89.7467 22.191 90.08 22.4177 90.52C22.6443 90.96 22.7577 91.56 22.7577 92.32V93.12C22.7577 94.3733 22.451 95.3333 21.8377 96C21.2377 96.6667 20.271 97 18.9377 97H16.1577ZM18.1977 90.4V94.96H19.0777C19.491 94.96 19.811 94.9 20.0377 94.78C20.2777 94.66 20.4577 94.4933 20.5777 94.28C20.6977 94.0667 20.771 93.8133 20.7977 93.52C20.8243 93.2267 20.8377 92.9067 20.8377 92.56C20.8377 92.2 20.8177 91.8867 20.7777 91.62C20.7377 91.3533 20.6577 91.1267 20.5377 90.94C20.4043 90.7533 20.2243 90.62 19.9977 90.54C19.771 90.4467 19.471 90.4 19.0977 90.4H18.1977ZM18.1977 84.68V88.6H19.1177C19.7977 88.6 20.251 88.4333 20.4777 88.1C20.7177 87.7533 20.8377 87.2533 20.8377 86.6C20.8377 85.96 20.7043 85.48 20.4377 85.16C20.1843 84.84 19.7177 84.68 19.0377 84.68H18.1977ZM25.4733 97V82.76H27.5133V94.96H31.5533V97H25.4733ZM33.7356 97V82.76H35.7756V97H33.7356ZM38.4377 86.12C38.4377 85.5467 38.5377 85.04 38.7377 84.6C38.9377 84.16 39.2043 83.7933 39.5377 83.5C39.8577 83.22 40.2177 83.0067 40.6177 82.86C41.031 82.7133 41.4443 82.64 41.8577 82.64C42.271 82.64 42.6777 82.7133 43.0777 82.86C43.491 83.0067 43.8643 83.22 44.1977 83.5C44.5177 83.7933 44.7777 84.16 44.9777 84.6C45.1777 85.04 45.2777 85.5467 45.2777 86.12V93.64C45.2777 94.24 45.1777 94.7533 44.9777 95.18C44.7777 95.6067 44.5177 95.96 44.1977 96.24C43.8643 96.5333 43.491 96.7533 43.0777 96.9C42.6777 97.0467 42.271 97.12 41.8577 97.12C41.4443 97.12 41.031 97.0467 40.6177 96.9C40.2177 96.7533 39.8577 96.5333 39.5377 96.24C39.2043 95.96 38.9377 95.6067 38.7377 95.18C38.5377 94.7533 38.4377 94.24 38.4377 93.64V86.12ZM40.4777 93.64C40.4777 94.1333 40.611 94.5 40.8777 94.74C41.1577 94.9667 41.4843 95.08 41.8577 95.08C42.231 95.08 42.551 94.9667 42.8177 94.74C43.0977 94.5 43.2377 94.1333 43.2377 93.64V86.12C43.2377 85.6267 43.0977 85.2667 42.8177 85.04C42.551 84.8 42.231 84.68 41.8577 84.68C41.4843 84.68 41.1577 84.8 40.8777 85.04C40.611 85.2667 40.4777 85.6267 40.4777 86.12V93.64ZM48.9789 97V84.68H46.6189V82.76H53.3789V84.68H51.0189V97H48.9789ZM55.0795 97V82.76H61.1595V84.68H57.1195V88.86H60.6395V90.78H57.1195V94.96H61.1595V97H55.0795ZM63.2819 97V82.76H65.3219V89.26H65.3619L68.3419 82.76H70.3819L67.6019 88.46L70.9019 97H68.7419L66.4219 90.68L65.3219 92.74V97H63.2819ZM72.5975 97V82.76H78.6775V84.68H74.6375V88.86H78.1575V90.78H74.6375V94.96H78.6775V97H72.5975ZM82.8398 84.68V89.12H83.9998C84.3598 89.12 84.6465 89.0733 84.8598 88.98C85.0732 88.8733 85.2398 88.7267 85.3598 88.54C85.4665 88.3533 85.5398 88.1267 85.5798 87.86C85.6198 87.58 85.6398 87.26 85.6398 86.9C85.6398 86.54 85.6198 86.2267 85.5798 85.96C85.5398 85.68 85.4598 85.44 85.3398 85.24C85.0865 84.8667 84.6065 84.68 83.8998 84.68H82.8398ZM80.7998 97V82.76H84.0798C86.4798 82.76 87.6798 84.1533 87.6798 86.94C87.6798 87.78 87.5465 88.4933 87.2798 89.08C87.0265 89.6667 86.5732 90.14 85.9198 90.5L88.1198 97H85.9598L84.0598 90.92H82.8398V97H80.7998ZM90.0355 97V82.76H91.9955L95.0755 91.34H95.1155V82.76H97.1555V97H95.2355L92.1155 88.44H92.0755V97H90.0355ZM99.8022 97V82.76H105.882V84.68H101.842V88.86H105.362V90.78H101.842V94.96H105.882V97H99.8022ZM114.605 86.86H112.565V86.4C112.565 85.9333 112.451 85.5333 112.225 85.2C112.011 84.8533 111.645 84.68 111.125 84.68C110.845 84.68 110.618 84.7333 110.445 84.84C110.271 84.9467 110.131 85.08 110.025 85.24C109.918 85.4133 109.845 85.6133 109.805 85.84C109.765 86.0533 109.745 86.28 109.745 86.52C109.745 86.8 109.751 87.0333 109.765 87.22C109.791 87.4067 109.845 87.5733 109.925 87.72C110.005 87.8667 110.118 87.9933 110.265 88.1C110.425 88.2067 110.638 88.3133 110.905 88.42L112.465 89.04C112.918 89.2133 113.285 89.42 113.565 89.66C113.845 89.8867 114.065 90.1533 114.225 90.46C114.371 90.78 114.471 91.1467 114.525 91.56C114.578 91.96 114.605 92.42 114.605 92.94C114.605 93.54 114.545 94.1 114.425 94.62C114.305 95.1267 114.111 95.56 113.845 95.92C113.565 96.2933 113.198 96.5867 112.745 96.8C112.291 97.0133 111.738 97.12 111.085 97.12C110.591 97.12 110.131 97.0333 109.705 96.86C109.278 96.6867 108.911 96.4467 108.605 96.14C108.298 95.8333 108.051 95.48 107.865 95.08C107.691 94.6667 107.605 94.22 107.605 93.74V92.98H109.645V93.62C109.645 93.9933 109.751 94.3333 109.965 94.64C110.191 94.9333 110.565 95.08 111.085 95.08C111.431 95.08 111.698 95.0333 111.885 94.94C112.085 94.8333 112.238 94.6867 112.345 94.5C112.451 94.3133 112.511 94.0933 112.525 93.84C112.551 93.5733 112.565 93.28 112.565 92.96C112.565 92.5867 112.551 92.28 112.525 92.04C112.498 91.8 112.445 91.6067 112.365 91.46C112.271 91.3133 112.145 91.1933 111.985 91.1C111.838 91.0067 111.638 90.9067 111.385 90.8L109.925 90.2C109.045 89.84 108.451 89.3667 108.145 88.78C107.851 88.18 107.705 87.4333 107.705 86.54C107.705 86.0067 107.778 85.5 107.925 85.02C108.071 84.54 108.291 84.1267 108.585 83.78C108.865 83.4333 109.218 83.16 109.645 82.96C110.085 82.7467 110.605 82.64 111.205 82.64C111.711 82.64 112.171 82.7333 112.585 82.92C113.011 83.1067 113.378 83.3533 113.685 83.66C114.298 84.3 114.605 85.0333 114.605 85.86V86.86ZM121.44 97V82.76H127.52V84.68H123.48V89H127V90.92H123.48V97H121.44ZM129.703 97V82.76H131.743V97H129.703ZM134.525 97V82.76H136.565V94.96H140.605V97H134.525ZM142.727 97V82.76H144.687L147.307 90.3H147.347L149.947 82.76H151.927V97H149.887V88.34H149.847L147.827 94.46H146.807L144.807 88.34H144.767V97H142.727ZM155.98 97V84.68H153.62V82.76H160.38V84.68H158.02V97H155.98ZM162.141 97V82.76H164.181V97H162.141ZM166.963 97V82.76H169.003V94.96H173.043V97H166.963ZM175.165 97V82.76H178.145C178.799 82.76 179.352 82.86 179.805 83.06C180.272 83.26 180.652 83.5267 180.945 83.86C181.239 84.1933 181.445 84.58 181.565 85.02C181.699 85.4467 181.765 85.8933 181.765 86.36V86.88C181.765 87.2667 181.732 87.5933 181.665 87.86C181.612 88.1267 181.525 88.36 181.405 88.56C181.179 88.9333 180.832 89.2533 180.365 89.52C180.845 89.7467 181.199 90.08 181.425 90.52C181.652 90.96 181.765 91.56 181.765 92.32V93.12C181.765 94.3733 181.459 95.3333 180.845 96C180.245 96.6667 179.279 97 177.945 97H175.165ZM177.205 90.4V94.96H178.085C178.499 94.96 178.819 94.9 179.045 94.78C179.285 94.66 179.465 94.4933 179.585 94.28C179.705 94.0667 179.779 93.8133 179.805 93.52C179.832 93.2267 179.845 92.9067 179.845 92.56C179.845 92.2 179.825 91.8867 179.785 91.62C179.745 91.3533 179.665 91.1267 179.545 90.94C179.412 90.7533 179.232 90.62 179.005 90.54C178.779 90.4467 178.479 90.4 178.105 90.4H177.205ZM177.205 84.68V88.6H178.125C178.805 88.6 179.259 88.4333 179.485 88.1C179.725 87.7533 179.845 87.2533 179.845 86.6C179.845 85.96 179.712 85.48 179.445 85.16C179.192 84.84 178.725 84.68 178.045 84.68H177.205ZM191.081 82.76V93.8C191.081 94.2667 190.994 94.7 190.821 95.1C190.661 95.4867 190.428 95.8333 190.121 96.14C189.814 96.4467 189.461 96.6867 189.061 96.86C188.661 97.0333 188.234 97.12 187.781 97.12C187.328 97.12 186.901 97.0333 186.501 96.86C186.114 96.6867 185.768 96.4467 185.461 96.14C185.154 95.8333 184.914 95.4867 184.741 95.1C184.568 94.7 184.481 94.2667 184.481 93.8V82.76H186.521V93.6C186.521 94.1067 186.641 94.48 186.881 94.72C187.121 94.96 187.421 95.08 187.781 95.08C188.141 95.08 188.441 94.96 188.681 94.72C188.921 94.48 189.041 94.1067 189.041 93.6V82.76H191.081ZM193.797 97V82.76H196.817C197.99 82.76 198.877 83.08 199.477 83.72C200.09 84.36 200.397 85.2667 200.397 86.44V93.1C200.397 94.4333 200.07 95.42 199.417 96.06C198.777 96.6867 197.85 97 196.637 97H193.797ZM195.837 84.68V95.08H196.777C197.35 95.08 197.757 94.94 197.997 94.66C198.237 94.3667 198.357 93.9133 198.357 93.3V86.44C198.357 85.88 198.243 85.4467 198.017 85.14C197.79 84.8333 197.377 84.68 196.777 84.68H195.837Z" fill="#CAAE68"/>
</svg>
