<?xml version="1.0" encoding="UTF-8"?><svg id="Layer_1" xmlns="http://www.w3.org/2000/svg" viewBox="0 0 156.16 71.67"><defs><style>.cls-1{fill:#fff;}.cls-2{fill:#ccb26e;}</style></defs><path class="cls-1" d="m10.95,19.44v2.81H2.74v30.53H0V.36h10.95v2.81H2.74v16.27h8.21Z"/><path class="cls-1" d="m18.65,52.78h-2.74V.36h2.74v52.42Z"/><path class="cls-1" d="m53.21,50.04v2.74h-29.23V0h2.81v50.04h26.43Zm0-44.5v40.32h-2.74V5.54c0-1.51-1.15-2.74-2.81-2.74s-2.81,1.08-2.81,2.74v40.32h-2.74V5.54c0-1.51-1.3-2.74-2.81-2.74s-2.81,1.08-2.81,2.74v40.32h-2.74V0h2.74v1.37c.79-.86,1.94-1.37,3.1-1.37,1.94,0,2.95.79,3.89,1.87,1.01-1.08,2.59-1.87,4.25-1.87,3.1,0,5.47,2.16,5.47,5.54Z"/><path class="cls-1" d="m66.53,5.69v-.14c0-1.51-1.22-2.74-2.81-2.74s-2.74,1.22-2.74,2.74v11.16c0,1.51,1.15,2.74,2.74,2.74,3.1,0,5.62,2.23,5.62,5.54v22.25c0,3.1-2.52,5.54-5.62,5.54s-5.54-2.3-5.54-5.54v-.14h2.81v.14c0,1.51,1.22,2.81,2.74,2.81s2.81-1.3,2.81-2.81v-22.25c0-1.51-1.22-2.66-2.74-2.81-3.31-.29-5.62-1.94-5.62-5.62V5.54c0-2.95,2.45-5.54,5.54-5.54s5.62,2.23,5.62,5.54v.14h-2.81Z"/><path class="cls-1" d="m84.1,3.17h-4.1v49.61h-2.81V3.17h-4.18V.36h11.09v2.81Z"/><path class="cls-1" d="m99.5,25.06v27.72h-2.81v-27.72c0-1.58-1.22-2.81-2.74-2.81h-2.81v30.53h-2.81V.36h5.62c3.31,0,5.54,2.38,5.54,5.54v10.8c0,1.58-.58,2.95-1.87,4.18,1.22.94,1.8,2.52,1.87,4.18Zm-5.54-5.62c1.51,0,2.74-1.22,2.74-2.74V5.91c0-1.51-1.22-2.74-2.74-2.74h-2.81v16.27h2.81Z"/><path class="cls-1" d="m107.57,52.78h-2.74V.36h2.74v52.42Z"/><path class="cls-1" d="m112.89.36h5.54c3.38,0,5.54,2.45,5.54,5.54v10.8c0,1.44-.58,2.81-1.87,4.18,1.15,1.08,1.8,2.45,1.87,4.18v22.25c0,3.1-2.16,5.47-5.54,5.47h-5.54V.36Zm5.54,19.08c1.51,0,2.81-1.22,2.81-2.74V5.91c0-1.51-1.15-2.74-2.81-2.74h-2.81v16.27h2.81Zm0,30.6c1.66,0,2.81-1.22,2.81-2.74v-22.25c0-1.58-1.3-2.81-2.81-2.81h-2.81v27.79h2.81Z"/><path class="cls-1" d="m140.25,19.44v2.81h-8.35v27.72h8.35v2.81h-11.09V.36h11.09v2.81h-8.35v16.27h8.35Z"/><path class="cls-1" d="m156.16,5.54v47.24h-2.81V5.54c0-1.51-1.22-2.74-2.74-2.74-1.66,0-2.81,1.22-2.81,2.74v47.24h-2.81V0h2.81v1.37c.65-.79,2.02-1.37,3.1-1.37,3.31,0,5.26,2.52,5.26,5.54Z"/><path class="cls-2" d="m0,71.57v-11.39h2.38c.52,0,.97.08,1.34.24.37.16.67.37.9.64.23.27.4.57.5.92.1.35.15.71.15,1.08v.42c0,.31-.02.57-.07.78s-.12.4-.22.56c-.18.3-.46.55-.83.77.38.18.67.45.85.8s.27.83.27,1.44v.64c0,1-.24,1.77-.73,2.3s-1.26.8-2.33.8H0Zm1.63-9.86v3.14h.74c.54,0,.91-.14,1.1-.41s.28-.67.28-1.19-.1-.9-.31-1.15c-.21-.26-.58-.38-1.13-.38h-.67Zm0,4.58v3.65h.7c.33,0,.59-.05.78-.14.19-.1.33-.23.42-.4.1-.17.15-.37.18-.61.02-.23.03-.49.03-.77s-.02-.54-.05-.75c-.03-.21-.1-.39-.19-.54-.11-.15-.25-.26-.43-.33-.18-.07-.42-.1-.72-.1h-.72Z"/><path class="cls-2" d="m7.39,71.57v-11.39h1.63v11.39h-1.63Z"/><path class="cls-2" d="m11.14,71.57v-11.39h2.38c.52,0,.97.08,1.34.24.37.16.67.37.9.64.23.27.4.57.5.92.1.35.15.71.15,1.08v.42c0,.31-.02.57-.07.78s-.12.4-.22.56c-.18.3-.46.55-.83.77.38.18.67.45.85.8s.27.83.27,1.44v.64c0,1-.24,1.77-.73,2.3s-1.26.8-2.33.8h-2.22Zm1.63-9.86v3.14h.74c.54,0,.91-.14,1.1-.41s.28-.67.28-1.19-.1-.9-.31-1.15c-.21-.26-.58-.38-1.13-.38h-.67Zm0,4.58v3.65h.7c.33,0,.59-.05.78-.14.19-.1.33-.23.42-.4.1-.17.15-.37.18-.61.02-.23.03-.49.03-.77s-.02-.54-.05-.75c-.03-.21-.1-.39-.19-.54-.11-.15-.25-.26-.43-.33-.18-.07-.42-.1-.72-.1h-.72Z"/><path class="cls-2" d="m18.48,71.57v-11.39h1.63v9.76h3.23v1.63h-4.86Z"/><path class="cls-2" d="m24.98,71.57v-11.39h1.63v11.39h-1.63Z"/><path class="cls-2" d="m28.63,62.87c0-.46.08-.86.24-1.22.16-.35.37-.65.64-.88.26-.22.55-.39.87-.51.33-.12.65-.18.98-.18s.66.06.98.18c.33.12.62.29.89.51.26.23.46.53.62.88.16.35.24.76.24,1.22v6.02c0,.48-.08.89-.24,1.23-.16.34-.37.62-.62.85-.27.23-.56.41-.89.53-.33.12-.65.18-.98.18s-.66-.06-.98-.18-.62-.29-.87-.53c-.27-.22-.48-.51-.64-.85-.16-.34-.24-.75-.24-1.23v-6.02Zm1.63,6.02c0,.39.11.69.33.87s.48.28.78.28.56-.09.78-.28c.22-.19.33-.48.33-.87v-6.02c0-.39-.11-.69-.33-.87-.22-.19-.48-.28-.78-.28s-.56.09-.78.28c-.22.19-.33.48-.33.87v6.02Z"/><path class="cls-2" d="m36.95,71.57v-9.86h-1.89v-1.54h5.41v1.54h-1.89v9.86h-1.63Z"/><path class="cls-2" d="m41.71,71.57v-11.39h4.86v1.54h-3.23v3.34h2.82v1.54h-2.82v3.34h3.23v1.63h-4.86Z"/><path class="cls-2" d="m48.16,71.57v-11.39h1.63v5.2h.03l2.38-5.2h1.63l-2.22,4.56,2.64,6.83h-1.73l-1.86-5.06-.88,1.65v3.41h-1.63Z"/><path class="cls-2" d="m55.51,71.57v-11.39h4.86v1.54h-3.23v3.34h2.82v1.54h-2.82v3.34h3.23v1.63h-4.86Z"/><path class="cls-2" d="m61.95,71.57v-11.39h2.62c1.92,0,2.88,1.11,2.88,3.34,0,.67-.1,1.24-.31,1.71s-.57.85-1.1,1.14l1.76,5.2h-1.73l-1.52-4.86h-.98v4.86h-1.63Zm1.63-9.86v3.55h.93c.29,0,.52-.04.69-.12.17-.08.3-.19.4-.34.09-.15.14-.33.18-.55.03-.22.05-.47.05-.76s-.02-.54-.05-.76c-.03-.22-.1-.41-.19-.57-.2-.3-.59-.45-1.15-.45h-.85Z"/><path class="cls-2" d="m69.23,71.57v-11.39h1.57l2.46,6.86h.03v-6.86h1.63v11.39h-1.54l-2.5-6.85h-.03v6.85h-1.63Z"/><path class="cls-2" d="m76.93,71.57v-11.39h4.86v1.54h-3.23v3.34h2.82v1.54h-2.82v3.34h3.23v1.63h-4.86Z"/><path class="cls-2" d="m88.66,63.46h-1.63v-.37c0-.37-.09-.7-.26-.97-.18-.27-.47-.41-.89-.41-.22,0-.41.04-.54.13-.14.09-.25.19-.34.32-.09.14-.14.3-.18.47-.03.18-.05.36-.05.55,0,.22,0,.41.02.56.02.15.06.28.12.4s.16.22.28.3c.12.09.29.17.5.26l1.25.5c.36.14.66.3.88.49.22.19.4.4.53.65.12.26.2.55.24.87s.06.7.06,1.11c0,.48-.05.93-.14,1.34-.1.41-.25.76-.46,1.05-.22.3-.52.53-.88.7-.36.17-.81.26-1.33.26-.39,0-.76-.07-1.1-.21-.34-.14-.63-.33-.88-.58-.25-.25-.44-.53-.58-.86-.14-.33-.22-.68-.22-1.06v-.61h1.63v.51c0,.3.09.57.26.81.18.24.47.36.89.36.28,0,.49-.04.65-.12.15-.08.27-.19.36-.34.08-.15.14-.33.15-.54s.02-.44.02-.7c0-.3-.01-.54-.03-.74-.02-.19-.06-.35-.13-.46-.07-.12-.17-.21-.3-.29-.12-.07-.29-.15-.49-.24l-1.17-.48c-.7-.29-1.18-.67-1.42-1.14-.24-.47-.36-1.07-.36-1.78,0-.43.06-.83.18-1.22.12-.38.29-.71.53-.99.22-.28.51-.5.86-.66.35-.17.76-.25,1.24-.25.41,0,.78.07,1.11.22.34.15.63.35.87.59.49.51.74,1.1.74,1.76v.8Z"/><path class="cls-2" d="m93.91,71.57v-11.39h4.86v1.54h-3.23v3.46h2.82v1.54h-2.82v4.86h-1.63Z"/><path class="cls-2" d="m100.4,71.57v-11.39h1.63v11.39h-1.63Z"/><path class="cls-2" d="m104.15,71.57v-11.39h1.63v9.76h3.23v1.63h-4.86Z"/><path class="cls-2" d="m110.59,71.57v-11.39h1.57l2.1,6.03h.03l2.08-6.03h1.58v11.39h-1.63v-6.93h-.03l-1.62,4.9h-.81l-1.6-4.9h-.03v6.93h-1.63Z"/><path class="cls-2" d="m121.09,71.57v-9.86h-1.89v-1.54h5.41v1.54h-1.89v9.86h-1.63Z"/><path class="cls-2" d="m125.91,71.57v-11.39h1.63v11.39h-1.63Z"/><path class="cls-2" d="m129.65,71.57v-11.39h1.63v9.76h3.23v1.63h-4.86Z"/><path class="cls-2" d="m136.1,71.57v-11.39h2.38c.52,0,.97.08,1.34.24.37.16.67.37.9.64.24.27.4.57.5.92.1.35.15.71.15,1.08v.42c0,.31-.02.57-.07.78-.05.21-.12.4-.22.56-.18.3-.46.55-.83.77.38.18.67.45.85.8.18.35.27.83.27,1.44v.64c0,1-.24,1.77-.73,2.3s-1.26.8-2.33.8h-2.22Zm1.63-9.86v3.14h.74c.54,0,.91-.14,1.1-.41.19-.27.28-.67.28-1.19s-.1-.9-.31-1.15c-.21-.26-.58-.38-1.13-.38h-.67Zm0,4.58v3.65h.7c.33,0,.59-.05.78-.14.19-.1.33-.23.42-.4.1-.17.16-.37.18-.61.02-.23.03-.49.03-.77s-.02-.54-.05-.75c-.03-.21-.1-.39-.19-.54-.11-.15-.25-.26-.43-.33s-.42-.1-.72-.1h-.72Z"/><path class="cls-2" d="m148.72,60.18v8.83c0,.37-.07.72-.2,1.03-.13.31-.32.59-.57.84-.25.25-.53.44-.85.58-.32.14-.66.21-1.02.21s-.7-.07-1.02-.21c-.31-.14-.59-.33-.84-.58-.25-.25-.44-.53-.58-.84s-.21-.66-.21-1.03v-8.83h1.63v8.67c0,.41.1.7.29.9.19.19.43.29.72.29s.53-.1.72-.29c.19-.19.29-.49.29-.9v-8.67h1.63Z"/><path class="cls-2" d="m150.79,71.57v-11.39h2.42c.94,0,1.65.26,2.14.77s.73,1.24.73,2.18v5.33c0,1.07-.26,1.85-.78,2.36-.52.51-1.26.76-2.23.76h-2.27Zm1.63-9.86v8.32h.75c.46,0,.78-.11.98-.34s.29-.59.29-1.08v-5.49c0-.45-.09-.79-.27-1.04-.18-.25-.51-.37-.99-.37h-.75Z"/></svg>