<svg width="220" height="220" viewBox="0 0 220 220" fill="none" xmlns="http://www.w3.org/2000/svg">
<path d="M89.4822 85.36C89.4822 84.8 89.2822 84.3333 88.8822 83.96C88.4822 83.56 88.0155 83.36 87.4822 83.36C86.9489 83.36 86.4822 83.56 86.0822 83.96C85.6822 84.3333 85.4822 84.8 85.4822 85.36V89.52C85.4822 90.08 85.6822 90.56 86.0822 90.96C86.4822 91.3333 86.9489 91.52 87.4822 91.52C88.0155 91.52 88.4822 91.3333 88.8822 90.96C89.2822 90.56 89.4822 90.08 89.4822 89.52V85.36ZM81.4022 86.96C81.4022 86.1867 81.4289 85.5333 81.4822 85C81.5355 84.44 81.6289 83.96 81.7622 83.56C81.8955 83.16 82.0422 82.8 82.2022 82.48C82.3889 82.16 82.6155 81.8267 82.8822 81.48C83.4155 80.7867 84.0822 80.2533 84.8822 79.88C85.6822 79.48 86.5489 79.28 87.4822 79.28C88.4155 79.28 89.2822 79.48 90.0822 79.88C90.8822 80.2533 91.5489 80.7867 92.0822 81.48C92.3489 81.8267 92.5755 82.16 92.7622 82.48C92.9489 82.8 93.1089 83.16 93.2422 83.56C93.3755 83.96 93.4555 84.44 93.4822 85C93.5355 85.5333 93.5622 86.1867 93.5622 86.96C93.5622 87.8133 93.5489 88.5333 93.5222 89.12C93.4955 89.7067 93.4155 90.2267 93.2822 90.68C93.1489 91.1333 92.9355 91.5467 92.6422 91.92C92.3755 92.2667 92.0022 92.64 91.5222 93.04C92.0022 93.4133 92.3755 93.7867 92.6422 94.16C92.9355 94.5333 93.1489 94.9733 93.2822 95.48C93.4155 95.9867 93.4955 96.6133 93.5222 97.36C93.5489 98.08 93.5622 98.9733 93.5622 100.04C93.5622 100.92 93.5355 101.653 93.4822 102.24C93.4555 102.8 93.4022 103.293 93.3222 103.72C93.2422 104.147 93.1222 104.507 92.9622 104.8C92.8289 105.093 92.6555 105.4 92.4422 105.72C91.9889 106.413 91.3489 107.013 90.5222 107.52C89.6955 108 88.6822 108.24 87.4822 108.24C86.2822 108.24 85.2689 108 84.4422 107.52C83.6155 107.013 82.9755 106.413 82.5222 105.72C82.3089 105.4 82.1222 105.093 81.9622 104.8C81.8289 104.507 81.7222 104.147 81.6422 103.72C81.5622 103.293 81.4955 102.8 81.4422 102.24C81.4155 101.653 81.4022 100.92 81.4022 100.04C81.4022 98.9733 81.4155 98.08 81.4422 97.36C81.4689 96.6133 81.5489 95.9867 81.6822 95.48C81.8155 94.9733 82.0155 94.5333 82.2822 94.16C82.5755 93.7867 82.9622 93.4133 83.4422 93.04C82.9622 92.64 82.5755 92.2667 82.2822 91.92C82.0155 91.5467 81.8155 91.1333 81.6822 90.68C81.5489 90.2267 81.4689 89.7067 81.4422 89.12C81.4155 88.5333 81.4022 87.8133 81.4022 86.96ZM89.4822 96.56C89.4822 96 89.2822 95.5333 88.8822 95.16C88.4822 94.76 88.0155 94.56 87.4822 94.56C86.9489 94.56 86.4822 94.76 86.0822 95.16C85.6822 95.5333 85.4822 96 85.4822 96.56V102.16C85.4822 102.72 85.6822 103.2 86.0822 103.6C86.4822 103.973 86.9489 104.16 87.4822 104.16C88.0155 104.16 88.4822 103.973 88.8822 103.6C89.2822 103.2 89.4822 102.72 89.4822 102.16V96.56ZM96.725 108.24L102.005 79.28H105.205L99.925 108.24H96.725ZM113.192 108V83.84L109.112 86.84V82.52L113.192 79.52H117.272V108H113.192ZM124.835 108V104.16L132.195 90.28C132.568 89.5867 132.782 88.9867 132.835 88.48C132.888 87.9467 132.915 87.2933 132.915 86.52C132.915 86.1733 132.902 85.8133 132.875 85.44C132.875 85.04 132.808 84.6933 132.675 84.4C132.542 84.1067 132.342 83.8667 132.075 83.68C131.808 83.4667 131.422 83.36 130.915 83.36C130.302 83.36 129.808 83.5333 129.435 83.88C129.088 84.2267 128.915 84.7333 128.915 85.4V87.72H124.835V85.48C124.835 84.6267 124.995 83.8267 125.315 83.08C125.635 82.3333 126.075 81.68 126.635 81.12C127.168 80.56 127.808 80.12 128.555 79.8C129.302 79.4533 130.102 79.28 130.955 79.28C132.022 79.28 132.928 79.48 133.675 79.88C134.448 80.2533 135.088 80.7733 135.595 81.44C136.075 82.1067 136.422 82.8667 136.635 83.72C136.875 84.5733 136.995 85.48 136.995 86.44C136.995 87.1333 136.982 87.72 136.955 88.2C136.928 88.6533 136.875 89.0933 136.795 89.52C136.715 89.9467 136.582 90.3733 136.395 90.8C136.208 91.2267 135.955 91.7467 135.635 92.36L129.635 103.92H136.995V108H124.835Z" fill="white"/>
<path d="M87.4703 141V123.912H91.1423C91.8143 123.912 92.4063 124 92.9183 124.176C93.4303 124.352 93.8943 124.664 94.3103 125.112C94.7263 125.56 95.0143 126.088 95.1743 126.696C95.3343 127.288 95.4143 128.096 95.4143 129.12C95.4143 129.888 95.3663 130.536 95.2703 131.064C95.1903 131.592 95.0063 132.088 94.7183 132.552C94.3823 133.112 93.9343 133.552 93.3743 133.872C92.8143 134.176 92.0783 134.328 91.1663 134.328H89.9183V141H87.4703ZM89.9183 126.216V132.024H91.0943C91.5903 132.024 91.9743 131.952 92.2463 131.808C92.5183 131.664 92.7183 131.464 92.8463 131.208C92.9743 130.968 93.0463 130.672 93.0623 130.32C93.0943 129.968 93.1103 129.576 93.1103 129.144C93.1103 128.744 93.1023 128.368 93.0863 128.016C93.0703 127.648 92.9983 127.328 92.8703 127.056C92.7423 126.784 92.5503 126.576 92.2943 126.432C92.0383 126.288 91.6703 126.216 91.1903 126.216H89.9183ZM98.0597 127.944C98.0597 127.256 98.1797 126.648 98.4197 126.12C98.6597 125.592 98.9797 125.152 99.3797 124.8C99.7637 124.464 100.196 124.208 100.676 124.032C101.172 123.856 101.668 123.768 102.164 123.768C102.66 123.768 103.148 123.856 103.628 124.032C104.124 124.208 104.572 124.464 104.972 124.8C105.356 125.152 105.668 125.592 105.908 126.12C106.148 126.648 106.268 127.256 106.268 127.944V136.968C106.268 137.688 106.148 138.304 105.908 138.816C105.668 139.328 105.356 139.752 104.972 140.088C104.572 140.44 104.124 140.704 103.628 140.88C103.148 141.056 102.66 141.144 102.164 141.144C101.668 141.144 101.172 141.056 100.676 140.88C100.196 140.704 99.7637 140.44 99.3797 140.088C98.9797 139.752 98.6597 139.328 98.4197 138.816C98.1797 138.304 98.0597 137.688 98.0597 136.968V127.944ZM100.508 136.968C100.508 137.56 100.668 138 100.988 138.288C101.324 138.56 101.716 138.696 102.164 138.696C102.612 138.696 102.996 138.56 103.316 138.288C103.652 138 103.82 137.56 103.82 136.968V127.944C103.82 127.352 103.652 126.92 103.316 126.648C102.996 126.36 102.612 126.216 102.164 126.216C101.716 126.216 101.324 126.36 100.988 126.648C100.668 126.92 100.508 127.352 100.508 127.944V136.968ZM109.454 141V123.912H111.902V141H109.454ZM115.145 141V123.912H117.497L121.193 134.208H121.241V123.912H123.689V141H121.385L117.641 130.728H117.593V141H115.145ZM128.473 141V126.216H125.641V123.912H133.753V126.216H130.921V141H128.473Z" fill="white"/>
<path d="M220 110C220 170.751 170.751 220 110 220C49.2487 220 0 170.751 0 110C0 49.2487 49.2487 0 110 0C170.751 0 220 49.2487 220 110ZM27.5 110C27.5 155.563 64.4365 192.5 110 192.5C155.563 192.5 192.5 155.563 192.5 110C192.5 64.4365 155.563 27.5 110 27.5C64.4365 27.5 27.5 64.4365 27.5 110Z" fill="#CAAE68"/>
<path d="M110 0C129.114 2.27929e-07 147.898 4.98046 164.5 14.4505C181.103 23.9206 194.952 37.5534 204.682 54.0054C214.411 70.4575 219.686 89.1608 219.986 108.272C220.287 127.384 215.602 146.243 206.394 162.993L182.295 149.745C189.201 137.183 192.715 123.038 192.49 108.704C192.265 94.3706 188.308 80.3431 181.011 68.0041C173.714 55.6651 163.327 45.4405 150.875 38.3379C138.423 31.2353 124.335 27.5 110 27.5V0Z" fill="#666666"/>
</svg>
